<svg width="61" height="58" viewBox="0 0 61 58" fill="none" xmlns="http://www.w3.org/2000/svg">
<path fill-rule="evenodd" clip-rule="evenodd" d="M27.5961 21.2939C21.8409 16.5631 17.1775 10.9292 13.6731 4.36525C12.9723 3.05785 11.3415 2.55915 10.0206 3.26002C8.71319 3.96089 8.2144 5.59179 8.91527 6.91266C12.7701 14.0966 17.8649 20.2696 24.1728 25.4588C25.3184 26.4022 27.0301 26.2405 27.9736 25.0948C28.917 23.9357 28.7418 22.2374 27.5961 21.2939Z" fill="#1D2930"/>
<path fill-rule="evenodd" clip-rule="evenodd" d="M24.5269 2.86921C24.8234 8.31443 25.0931 13.7596 25.43 19.2049C25.5244 20.6875 26.8048 21.8196 28.2874 21.7253C29.77 21.6309 30.9022 20.3505 30.8078 18.8679C30.4709 13.4362 30.2013 8.00446 29.9047 2.55924C29.8239 1.08067 28.5434 -0.058249 27.0608 0.0253162C25.5782 0.108881 24.4326 1.38256 24.5269 2.86921Z" fill="#1D2930"/>
<path fill-rule="evenodd" clip-rule="evenodd" d="M44.5367 3.97433C41.0863 9.17694 37.1778 13.9751 33.2421 18.8273C32.2986 19.9864 32.4737 21.6848 33.6329 22.6148C34.792 23.5583 36.4903 23.383 37.4203 22.2239C41.4638 17.2504 45.4803 12.3038 49.0386 6.95297C49.8608 5.71297 49.5102 4.04172 48.2702 3.21955C47.0437 2.39738 45.3589 2.73433 44.5367 3.97433Z" fill="#1D2930"/>
<path fill-rule="evenodd" clip-rule="evenodd" d="M57.9026 23.3158C48.5487 23.7336 38.6152 23.7471 29.2613 23.154C27.7787 23.0732 26.4983 24.1919 26.4039 25.6879C26.3096 27.1705 27.4418 28.451 28.9244 28.5453C38.467 29.1384 48.6027 29.1249 58.1453 28.7071C59.6279 28.6397 60.7869 27.3728 60.7195 25.8901C60.6521 24.4075 59.3852 23.2484 57.9026 23.3158Z" fill="#1D2930"/>
<path fill-rule="evenodd" clip-rule="evenodd" d="M24.1654 25.0271C29.9341 32.0898 35.9051 39.0176 41.2559 46.4037C42.132 47.6033 43.8169 47.8728 45.0299 46.9967C46.2295 46.1206 46.499 44.4358 45.6229 43.2362C40.2046 35.7692 34.1664 28.7606 28.3303 21.6171C27.3869 20.4715 25.6885 20.2963 24.5429 21.2398C23.3837 22.1832 23.222 23.8815 24.1654 25.0271Z" fill="#1D2930"/>
<path fill-rule="evenodd" clip-rule="evenodd" d="M25.9125 27.0768C27.4221 34.436 27.8399 41.4716 27.9477 48.9251C27.9612 50.4077 29.1878 51.5938 30.6704 51.5803C32.1664 51.5533 33.3525 50.3403 33.3255 48.8442C33.2177 41.0403 32.773 33.6947 31.196 25.9851C30.886 24.5294 29.4708 23.5859 28.0017 23.8959C26.546 24.1924 25.6025 25.6212 25.9125 27.0768Z" fill="#1D2930"/>
<path fill-rule="evenodd" clip-rule="evenodd" d="M26.1558 26.4836C21.7889 35.2175 19.538 44.9219 14.8611 53.4671C14.1467 54.761 14.6318 56.4053 15.9392 57.1197C17.2466 57.834 18.8776 57.3488 19.5919 56.0548C24.2959 47.4557 26.5736 37.6975 30.981 28.8962C31.6414 27.5619 31.1023 25.9445 29.7814 25.2706C28.4471 24.6101 26.8298 25.1493 26.1558 26.4836Z" fill="#1D2930"/>
<path fill-rule="evenodd" clip-rule="evenodd" d="M28.5592 24.502C19.8657 26.0385 11.1857 26.7394 2.43832 27.7772C0.955707 27.9524 -0.0955968 29.2868 0.0796205 30.7694C0.254838 32.252 1.58931 33.3033 3.07192 33.1281C11.9137 32.0903 20.7015 31.3624 29.5028 29.8124C30.9584 29.5429 31.9423 28.1411 31.6862 26.6855C31.4167 25.2163 30.0283 24.2324 28.5592 24.502Z" fill="#1D2930"/>
<path fill-rule="evenodd" clip-rule="evenodd" d="M34.6087 20.4049C32.8161 20.3241 31.1178 20.2027 29.3656 19.9466C27.883 19.731 26.5217 20.7553 26.306 22.2245C26.0904 23.6936 27.1146 25.0684 28.5838 25.2841C30.5246 25.5671 32.3982 25.7019 34.366 25.7828C35.8486 25.8501 37.1155 24.7044 37.1694 23.2084C37.2368 21.7258 36.0913 20.4723 34.6087 20.4049Z" fill="#1D2930"/>
</svg>
