<svg width="197" height="27" viewBox="0 0 197 27" fill="none" xmlns="http://www.w3.org/2000/svg">
<path fill-rule="evenodd" clip-rule="evenodd" d="M52.5072 15.9002C44.0436 18.3402 34.2719 20.7684 24.8715 21.3747C16.8368 21.8922 9.07605 21.0884 2.72375 17.6685C1.8283 17.187 0.706955 17.518 0.222689 18.4091C-0.262316 19.2995 0.071352 20.4146 0.966802 20.8968C7.89639 24.6265 16.3459 25.602 25.11 25.0368C34.6794 24.4202 44.6275 21.9758 53.2609 19.5007C54.2627 21.5185 56.337 23.3999 59.9912 24.7879C65.6038 26.9203 73.2672 26.8939 81.3402 25.6923C93.049 23.9504 105.644 19.7965 113.743 16.8449C114.075 16.7245 114.569 16.533 115.175 16.2804C115.359 16.6856 115.566 17.085 115.795 17.4769C117.781 20.8932 121.294 23.6553 124.875 24.6419C147.582 30.8974 174.084 23.4021 195.662 17.3022C196.636 17.0255 197.205 16.0096 196.932 15.0355C196.651 14.0615 195.632 13.4955 194.65 13.7722C173.678 19.7018 147.929 27.1831 125.857 21.1045C123.14 20.3558 120.497 18.233 118.991 15.6404C118.821 15.3511 118.674 15.0553 118.534 14.7551C121.509 13.2892 125.008 11.2457 126.89 9.05823C128.824 6.81574 129.304 4.42204 127.621 2.1612C126.174 0.228469 123.982 0.0640405 121.7 1.06601C119.242 2.13917 116.71 4.64808 115.891 5.82548C114.355 8.02467 113.868 10.4103 114.149 12.7365C113.425 13.0404 112.838 13.2665 112.475 13.3986C104.554 16.2848 92.2429 20.3588 80.794 22.0625C73.4274 23.1591 66.4299 23.3052 61.3082 21.36C59.1238 20.5298 57.6806 19.5609 56.8973 18.4363C58.4431 17.9768 59.9336 17.5246 61.3576 17.093C64.1739 16.2393 70.0375 14.8263 74.2269 12.3078C77.5584 10.3054 79.8173 7.58134 79.6859 4.16659C79.6188 2.41223 78.5978 1.24142 76.973 0.585187C74.545 -0.394756 70.3461 0.0794238 68.7825 0.409742C64.0403 1.4095 57.7109 5.54804 54.5794 10.2114C53.3296 12.0722 52.5862 14.0189 52.5072 15.9002ZM56.4027 14.7536C57.7426 14.3528 59.0374 13.9594 60.2813 13.5821C62.9101 12.7849 68.4053 11.5187 72.3171 9.16684C74.3885 7.9219 76.0798 6.43035 75.9978 4.30678C75.9912 4.14162 75.8265 4.09465 75.6811 4.02712C75.4559 3.92362 75.1983 3.8524 74.9237 3.79661C73.0656 3.41932 70.5697 3.78412 69.5481 3.99993C65.5691 4.83893 60.2761 8.33665 57.6488 12.2498C57.0937 13.0763 56.6515 13.9183 56.4027 14.7536ZM117.795 11.0467C119.53 10.1593 121.346 9.0861 122.778 7.91824C123.539 7.29798 124.181 6.66012 124.587 5.99802C124.926 5.45042 125.059 4.88958 124.653 4.34786C124.491 4.12838 124.247 4.12401 123.996 4.16511C123.731 4.20915 123.457 4.30309 123.184 4.4242C121.383 5.21256 119.523 7.05428 118.925 7.91824C118.224 8.92021 117.877 9.98018 117.795 11.0467Z" fill="#1D2930"/>
</svg>
