<svg width="46" height="42" viewBox="0 0 46 42" fill="none" xmlns="http://www.w3.org/2000/svg">
<path d="M4.18157 6.81129C4.35748 6.58856 4.31936 6.26549 4.09595 6.09024C3.24714 5.4207 2.31607 4.85282 1.33014 4.40199C1.07463 4.28293 0.767612 4.39664 0.64989 4.6555C0.531498 4.91302 0.645208 5.21803 0.903395 5.33575C1.81441 5.75313 2.67525 6.2782 3.46052 6.89691C3.68045 7.07129 4.00564 7.03615 4.18157 6.81129Z" fill="#D94539"/>
<path d="M4.80889 4.89688C4.96594 5.13034 5.28454 5.19472 5.52192 5.03467C5.75736 4.87615 5.8189 4.55642 5.6597 4.32165L3.91393 1.73844C3.75608 1.50299 3.43635 1.44146 3.20091 1.60065C2.96612 1.75917 2.90393 2.07823 3.06312 2.31367L4.80889 4.89688Z" fill="#D94539"/>
<path d="M6.99676 3.79931C7.26832 3.79931 7.49574 3.58594 7.50912 3.31103L7.62149 1.02548C7.63554 0.741872 7.41681 0.501076 7.13388 0.487029C6.8476 0.472314 6.60881 0.691037 6.59543 0.974642L6.48306 3.2602C6.46858 3.55265 6.70157 3.79931 6.99676 3.79931Z" fill="#D94539"/>
<path d="M15.5572 22.2598C15.6898 21.2545 15.4573 20.03 15.5739 19.1408C15.6107 18.8626 15.4174 18.6064 15.1391 18.5656C13.7539 18.3629 12.3519 18.381 10.97 18.6198C10.7058 18.6653 10.5212 18.9067 10.5459 19.1743C10.6324 20.087 10.651 21.4228 10.7399 22.3755C10.7683 22.6709 11.04 22.8775 11.3198 22.8364C12.4092 22.6911 13.9188 22.8619 15.1164 22.7019C15.3465 22.6712 15.5271 22.4899 15.5572 22.2598ZM11.7231 21.7668C11.6765 21.0291 11.6535 20.2521 11.6074 19.5615C12.572 19.4331 13.5478 19.4191 14.515 19.5221C14.4921 20.2465 14.5943 21.0625 14.5706 21.7247C13.6992 21.7849 12.6444 21.7081 11.7231 21.7668Z" fill="#D94539"/>
<path d="M19.7063 18.2812C19.4421 18.3267 19.2575 18.5681 19.2823 18.8357C19.3264 19.3019 19.3518 19.857 19.3772 20.4115C19.4543 22.0607 19.443 22.2128 19.6675 22.3908C19.7813 22.4819 19.9274 22.5166 20.0555 22.4978C21.1935 22.3459 22.6125 22.5294 23.852 22.3633C24.0821 22.3326 24.2627 22.1513 24.2928 21.9212C24.4254 20.916 24.1929 19.6914 24.3095 18.8022C24.3463 18.524 24.153 18.2678 23.8748 18.227C22.4902 18.0237 21.0889 18.0424 19.7063 18.2812Z" fill="#D94539"/>
<path d="M20.0761 25.9117C20.1129 25.6334 19.9196 25.3772 19.6414 25.3364C18.2541 25.1331 16.8528 25.1518 15.4729 25.3899C15.2087 25.4354 15.0241 25.6769 15.0489 25.9438C15.1356 26.8716 15.1526 28.1821 15.2422 29.1464C15.2706 29.442 15.5422 29.6484 15.8221 29.6072C16.944 29.4576 18.4013 29.6348 19.6186 29.4721C19.8487 29.4413 20.0293 29.2601 20.0594 29.03C20.192 28.0247 19.9595 26.8008 20.0761 25.9117ZM16.2254 28.5377C16.1805 27.8451 16.158 27.052 16.1097 26.3317C17.0742 26.2033 18.0488 26.1906 19.0173 26.2929C18.9949 27.0003 19.0961 27.8451 19.0728 28.4949C18.6267 28.5263 17.1817 28.478 16.2254 28.5377Z" fill="#D94539"/>
<path d="M24.5529 28.8683C24.5817 29.1675 24.8564 29.3698 25.1328 29.3291C26.233 29.1823 27.7154 29.3557 28.9294 29.1947C29.1595 29.1639 29.34 28.9826 29.3701 28.7526C29.5028 27.7473 29.2703 26.5227 29.3869 25.6336C29.4237 25.3553 29.2304 25.0991 28.9521 25.0583C27.5655 24.8557 26.1635 24.8737 24.783 25.1118C24.5188 25.1573 24.3342 25.3988 24.3589 25.6663C24.4454 26.5798 24.4639 27.9151 24.5529 28.8683ZM28.328 26.0148C28.3051 26.7392 28.4073 27.5552 28.3836 28.2174C27.5348 28.2773 26.4503 28.2012 25.5361 28.2596C25.4899 27.5281 25.466 26.7375 25.4204 26.0536C26.3863 25.9252 27.3602 25.9125 28.328 26.0148Z" fill="#D94539"/>
<path d="M29.2625 22.0959C29.3763 22.1871 29.5223 22.2218 29.6504 22.2029C30.8104 22.0498 32.2024 22.2353 33.4463 22.0685C33.6771 22.0377 33.8577 21.8565 33.8878 21.6264C34.0201 20.6219 33.788 19.3958 33.9045 18.5074C33.9413 18.2291 33.748 17.9729 33.4697 17.9321C32.0825 17.7288 30.6812 17.7475 29.3013 17.9856C29.0371 18.0311 28.8525 18.2726 28.8772 18.5401C28.9214 19.0064 28.9468 19.5615 28.9722 20.1167C29.0493 21.7658 29.038 21.9179 29.2625 22.0959ZM32.8457 18.8886C32.8226 19.6156 32.925 20.4267 32.9012 21.0913C32.0326 21.1511 30.9967 21.0748 30.0538 21.1334C30.0094 20.4323 29.9852 19.6253 29.9387 18.9274C30.9026 18.799 31.8771 18.7863 32.8457 18.8886Z" fill="#D94539"/>
<path d="M42.2988 32.0941C42.1316 31.8647 41.8105 31.8138 41.5811 31.9824C39.9376 33.1823 38.2641 34.4539 37.0173 35.6953C36.1633 34.568 35.9178 34.2481 35.4 33.5596C35.2301 33.3335 34.909 33.2867 34.6809 33.4573C34.4542 33.6278 34.408 33.9495 34.5786 34.1763C35.195 34.9978 35.8708 35.8793 36.5585 36.7936C36.7499 37.048 37.1271 37.0711 37.3464 36.8337C38.5604 35.5194 40.3905 34.1241 42.1871 32.8118C42.4158 32.6446 42.466 32.3235 42.2988 32.0941Z" fill="#D94539"/>
<path d="M39.9113 27.1285C39.5661 8.33495 39.7056 8.80339 39.18 7.49939C38.9241 6.8645 38.2806 5.92518 37.5278 5.74446C36.5888 5.21552 35.9728 5.50264 34.5243 5.45333C33.9363 2.94214 31.8737 1.98386 30.3594 2.64939C29.3372 3.09695 28.6082 4.29713 28.532 5.56516L24.7909 5.63497C24.2973 2.92594 22.1466 1.87075 20.5744 2.56177C19.4798 3.04098 18.7283 4.38338 18.748 5.74776L15.099 5.81586C14.6669 3.05048 12.4905 1.88732 10.8582 2.60458C9.72658 3.10005 8.95687 4.51786 9.0325 5.92907C8.39303 6.0131 7.07001 5.66256 5.9781 6.79978C5.73635 7.0512 5.55328 7.34224 5.42202 7.65449C5.36888 7.71786 5.32545 7.78989 5.30789 7.87668C3.94538 14.6377 3.02032 22.0094 2.25981 28.3878C2.24376 28.5263 2.28389 28.6661 2.37285 28.7745C3.77047 30.4813 4.92389 31.2914 5.85637 32.1429C5.88036 32.1648 5.90942 32.1755 5.93605 32.192C6.12204 32.4626 6.44553 32.6462 6.853 32.6881C9.52161 32.9429 12.1113 33.1039 14.7413 33.1812C20.2186 33.6379 25.7116 33.9091 31.2003 33.8254C31.0988 35.8373 31.8315 37.6419 33.137 38.9861C35.4049 41.9844 39.5918 42.1992 42.3402 40.2423C44.408 38.7699 45.5713 36.1522 45.3755 33.6213C45.1431 30.6159 42.9498 27.7508 39.9113 27.1285ZM38.0883 40.0631C34.8824 40.0631 32.2602 37.4932 32.2122 34.2713C32.1624 31.0223 34.7534 28.3533 38.002 28.3049C41.1554 28.2348 43.9193 30.7908 43.9697 34.0951C44.0187 37.3644 41.376 40.0631 38.0883 40.0631ZM38.3399 27.0169C35.7182 27.1229 32.8331 28.7874 31.6954 31.5727C22.0021 32.3909 14.8279 32.4182 6.954 31.6653C6.84698 31.6546 6.79347 31.6199 6.78945 31.6199L6.36338 14.3005C25.7158 13.8715 28.1661 14.0702 37.951 13.8292L38.3399 27.0169ZM5.66285 27.6095L3.36555 27.8023C3.90128 23.3281 4.52237 18.4108 5.31763 13.5797L5.66285 27.6095ZM30.7714 3.58983C31.6449 3.20852 32.9606 3.7285 33.4638 5.47315L29.5643 5.54593C29.6401 4.68613 30.1207 3.87515 30.7714 3.58983ZM20.9864 3.50221C21.9438 3.0852 23.3343 3.7621 23.7512 5.65441L19.7726 5.72866C19.759 4.77329 20.2676 3.81738 20.9864 3.50221ZM11.2703 3.54502C12.2488 3.11786 13.6823 3.83188 14.0592 5.83526L10.0574 5.90992C9.98878 4.90995 10.5167 3.87545 11.2703 3.54502ZM7.94661 6.97704L14.1369 6.86153C14.0965 7.99078 13.6418 9.00049 12.9531 9.73829C12.2406 9.4394 11.6038 10.1238 11.7193 10.9266C11.8079 11.5427 12.3044 11.981 12.8282 11.9056C13.3319 11.8332 13.7449 11.275 13.597 10.5717C14.5027 9.66492 15.124 8.3375 15.1641 6.84238L23.8546 6.68022C23.8477 7.90194 23.359 8.98919 22.6063 9.75957C22.452 9.68311 22.2821 9.64695 22.1077 9.67207C21.5839 9.74745 21.2311 10.3079 21.3198 10.924C21.4084 11.54 21.9049 11.9784 22.4287 11.903C22.929 11.831 23.3202 11.2894 23.2103 10.6238C24.2028 9.68609 24.8778 8.26418 24.8819 6.66103L33.6351 6.4977C33.7008 7.75364 33.2565 8.89496 32.5069 9.72939C32.3436 9.63972 32.16 9.5985 31.9721 9.62555C31.4483 9.70092 31.0956 10.2614 31.1842 10.8775C31.2729 11.4935 31.7693 11.9318 32.2931 11.8565C32.8093 11.7822 33.1574 11.2364 33.0825 10.6309C33.8767 9.84264 34.4263 8.75625 34.6074 7.58772C34.6647 7.2203 34.6818 6.84727 34.6651 6.47847C34.7414 6.47703 36.2317 6.44728 36.3311 6.44728C37.1044 6.44728 37.7492 7.07135 37.7746 7.84992L37.9206 12.8019C29.1236 13.0201 10.341 12.9789 6.3383 13.2814L6.2276 8.781C6.20284 7.80045 6.97387 6.99093 7.94661 6.97704ZM3.7601 28.7997L5.68815 28.638L5.73835 30.6785C5.14535 30.1731 4.48738 29.5979 3.7601 28.7997Z" fill="#D94539"/>
</svg>
