<svg width="40" height="37" viewBox="0 0 40 37" fill="none" xmlns="http://www.w3.org/2000/svg">
<path d="M39.6077 1.21607C39.4651 0.795582 39.0793 0.481009 38.6087 0.454304C34.2897 0.208217 29.9291 -0.0691465 25.655 0.0155621C25.0687 0.0270286 24.5883 0.492928 24.5611 1.07651C24.4531 3.35833 24.3581 8.94792 24.419 10.7566C24.4259 10.9636 24.5678 11.1344 24.757 11.1875C24.811 11.3734 24.9791 11.5128 25.1833 11.5212L25.9112 11.552C26.3 12.0752 26.8055 13.1834 27.311 13.8984C27.4594 14.1072 27.7527 14.1697 27.9795 13.9827C28.2367 13.9159 28.5301 13.745 28.7595 13.6018C29.0324 12.9606 29.3128 12.3007 29.5874 11.6553C32.7509 11.7641 35.7011 12.2641 38.9714 12.0137C39.1169 12.0024 39.2371 11.9204 39.314 11.8068C39.4069 11.7353 39.4949 11.6542 39.5785 11.559C40.1087 2.92486 40.0694 2.55413 39.8388 1.75529C39.7848 1.56821 39.707 1.3849 39.6077 1.21607ZM25.6734 0.942534C29.8891 0.855556 34.0478 1.1216 38.5565 1.38007C38.6658 1.3861 38.7469 1.47542 38.7409 1.58284C38.6386 3.45962 38.5737 7.53377 38.5195 9.93011C37.5991 8.22635 36.8849 7.033 36.1534 5.63895C36.0129 5.3704 35.6472 5.30199 35.4214 5.52066C33.6511 7.2284 32.5875 7.75115 32.4286 7.98014C30.8487 6.04453 30.6574 5.8265 29.9899 4.99743C29.8173 4.7831 29.5028 4.77084 29.3103 4.95156C27.9049 6.28228 26.5712 7.71121 25.3268 9.19898C25.3249 6.78529 25.4019 2.91982 25.4869 1.11996C25.4914 1.0222 25.5732 0.944344 25.6734 0.942534ZM29.3405 10.7192C29.2114 10.7198 29.0807 10.7687 28.9905 10.8652C28.5207 11.3649 28.0303 12.0408 27.651 12.6962C27.2732 12.0327 26.9524 11.3369 26.4962 10.7988C26.4124 10.6999 26.2911 10.6401 26.1616 10.6353L25.3418 10.6003C25.341 10.5719 25.3405 10.5356 25.3398 10.5057C25.4221 10.4791 25.5 10.4375 25.5584 10.3655C26.8061 8.82602 28.1595 7.34986 29.5855 5.97147C30.8181 7.48833 32.2249 9.13581 33.6147 10.993C32.0914 10.8768 30.724 10.7559 29.3405 10.7192ZM34.7477 11.0699C34.7398 10.9902 34.719 10.9113 34.6682 10.8417C34.1226 10.0965 33.556 9.37226 32.9849 8.66134C33.4336 8.47165 35.0444 7.13168 35.6187 6.60696C36.3979 8.0511 37.2639 9.51429 38.0007 10.9195C38.0551 11.0232 38.1477 11.0842 38.2494 11.1232C37.0608 11.1774 35.8941 11.141 34.7477 11.0699Z" fill="#1D2930"/>
<path d="M18.2076 9.84668H9.23058C8.97469 9.84668 8.76709 10.0543 8.76709 10.3102C8.76709 10.566 8.97469 10.7736 9.23058 10.7736H18.2076C18.4635 10.7736 18.6711 10.566 18.6711 10.3102C18.6711 10.0543 18.4635 9.84668 18.2076 9.84668Z" fill="#1D2930"/>
<path d="M16.3354 16.4553H9.46397C9.20809 16.4553 9.00049 16.6629 9.00049 16.9188C9.00049 17.1747 9.20809 17.3823 9.46397 17.3823H16.3354C16.5913 17.3823 16.7989 17.1747 16.7989 16.9188C16.7989 16.6629 16.5913 16.4553 16.3354 16.4553Z" fill="#1D2930"/>
<path d="M14.8624 23.3467H9.49034C9.23446 23.3467 9.02686 23.5543 9.02686 23.8102C9.02686 24.0661 9.23446 24.2737 9.49034 24.2737H14.8624C15.1183 24.2737 15.3259 24.0661 15.3259 23.8102C15.3259 23.5543 15.1183 23.3467 14.8624 23.3467Z" fill="#1D2930"/>
<path d="M6.063 8.21997H3.59288C3.337 8.21997 3.12939 8.42757 3.12939 8.68346V11.2875C3.12939 11.5434 3.337 11.751 3.59288 11.751H5.89583C6.14024 11.751 6.34272 11.5609 6.35841 11.3171L6.52558 8.71303C6.54259 8.44587 6.32967 8.21997 6.063 8.21997ZM5.46101 10.8241H4.05637V9.14694H5.56873L5.46101 10.8241Z" fill="#1D2930"/>
<path d="M6.02735 14.6677H3.55724C3.30135 14.6677 3.09375 14.8753 3.09375 15.1312V17.7353C3.09375 17.9912 3.30135 18.1988 3.55724 18.1988H5.86018C6.1046 18.1988 6.30707 18.0087 6.32276 17.7649L6.48993 15.1608C6.49808 15.0328 6.45312 14.9073 6.36531 14.8144C6.2778 14.7208 6.15529 14.6677 6.02735 14.6677ZM5.42536 17.2718H4.02072V15.5947H5.53308L5.42536 17.2718Z" fill="#1D2930"/>
<path d="M5.83838 21.8289H3.36827C3.11239 21.8289 2.90479 22.0365 2.90479 22.2923V24.8964C2.90479 25.1523 3.11239 25.3599 3.36827 25.3599H5.67122C5.91563 25.3599 6.1181 25.1698 6.1338 24.926L6.30096 22.3219C6.30911 22.194 6.26415 22.0684 6.17634 21.9755C6.08884 21.882 5.96633 21.8289 5.83838 21.8289ZM5.2364 24.4329H3.83176V22.7558H5.34412L5.2364 24.4329Z" fill="#1D2930"/>
<path d="M24.6308 29.7118C24.6656 30.0187 24.9444 30.1732 25.1962 30.1093C26.545 29.7695 28.0018 29.0019 28.9985 28.1057C29.2039 27.9211 29.2032 27.5981 28.9964 27.4147C26.9295 25.578 25.0377 24.2869 25.0997 24.3304C24.6699 24.0285 24.206 24.4481 24.3884 24.8713C24.7447 27.1863 24.5266 29.4637 24.6308 29.7118ZM25.5291 29.0352C25.5466 27.7773 25.5121 26.6689 25.425 25.7253C26.2969 26.3716 27.1548 27.0416 27.974 27.7508C27.2695 28.2893 26.3956 28.7424 25.5291 29.0352Z" fill="#1D2930"/>
<path d="M31.7972 32.3483L21.9981 31.9814L22.0299 31.6579C22.0549 31.4032 21.8687 31.1763 21.6138 31.1516C21.3666 31.1256 21.1325 31.3121 21.1071 31.5674L21.0699 31.9466L20.2737 31.9168C20.0305 31.8842 19.803 32.1069 19.7933 32.3622C19.7836 32.6181 19.9834 32.8335 20.2393 32.8426L20.9794 32.8703L20.9602 33.0665C20.9006 33.6793 21.823 33.7658 21.8829 33.157L21.9076 32.905C26.0629 33.0607 31.868 33.2747 31.7803 33.2747C32.0283 33.2747 32.2338 33.0786 32.2431 32.8287C32.2528 32.5728 32.053 32.3574 31.7972 32.3483Z" fill="#1D2930"/>
<path d="M32.8834 5.44038H32.8837C33.7075 5.15855 34.0986 4.37521 33.8342 3.53514C33.5931 2.7693 32.8119 2.10727 31.833 2.3885C30.8194 2.68062 30.5321 3.79481 30.9985 4.66159C31.3438 5.30334 32.0652 5.7188 32.8834 5.44038ZM32.0895 3.27926C32.5004 3.15972 32.8367 3.45262 32.9498 3.81335C33.0032 3.98294 33.0744 4.39573 32.5838 4.5629C32.241 4.68101 31.9481 4.48502 31.8045 4.20047C31.6307 3.85602 31.6722 3.39904 32.0895 3.27926Z" fill="#1D2930"/>
<path d="M35.3519 21.0233C34.9989 20.2772 34.2508 19.7566 33.3953 19.7566C33.3947 19.7566 33.3938 19.7566 33.3932 19.7566C30.1652 19.5229 26.8869 19.4636 23.6144 19.5578C23.7495 17.2161 23.8522 14.8744 23.7306 12.5327C23.6073 10.0914 23.2146 7.5755 21.5872 5.73838C21.3464 5.35347 20.8992 4.78387 20.4139 4.64499C19.5953 4.043 18.3508 3.56579 17.4081 3.35607C17.2105 3.31217 15.3612 2.97972 14.0831 2.84702C14.0605 2.84137 14.0403 2.83013 14.0174 2.82545C12.2673 2.46721 10.9351 2.52165 5.26906 2.3517C3.75761 2.30644 2.24615 2.26118 0.666193 2.22437C0.290669 2.23675 -0.0095856 2.30098 0.000234178 2.69751C0.000387438 2.76059 0.1609 34.219 0.0690328 32.0395C0.0784866 32.2638 0.257233 32.4842 0.504305 32.4792C1.41375 32.5438 9.13019 31.9051 17.1646 32.481C17.1956 32.9965 17.2164 33.5098 17.2578 34.0275C17.2578 35.2453 18.2476 36.2356 19.4262 36.2356H19.4292C23.6323 36.5911 32.6223 36.7859 34.2728 36.0369C36.3017 35.518 36.5611 33.9541 36.5303 31.9016C36.4169 24.3378 36.6606 22.3248 35.3519 21.0233ZM17.2596 21.9255C16.993 25.0268 16.9495 28.2616 17.1083 31.5487C11.7406 31.1722 6.61102 31.3126 0.998833 31.5389C1.12903 8.54742 1.11931 10.1542 0.939389 3.15903C11.2881 3.40866 12.3979 3.44063 13.8315 3.73311C14.8549 3.9426 15.5618 6.35183 16.5074 7.25934C16.7034 7.44615 16.9964 7.41729 17.1842 7.23641C17.7834 6.66063 19.2637 5.51644 20.0128 5.51644C20.1278 5.50196 20.1984 5.53817 20.2219 5.55688C20.7147 5.96243 21.062 6.56351 21.3151 7.44944L21.3194 7.44824C22.3815 11.5396 22.1602 15.389 21.7468 19.6339C20.9866 19.6703 20.2258 19.7014 19.4681 19.7554C18.2494 19.7554 17.2578 20.7469 17.2596 21.9255ZM19.4681 35.3105C18.7605 35.3105 18.1848 34.7347 18.1833 33.9906C17.8544 29.8651 17.8541 25.8326 18.1848 21.9654C18.1848 21.2581 18.7605 20.6823 19.501 20.6811C24.111 20.3523 28.7684 20.3513 33.3597 20.6823C34.0673 20.6823 34.6431 21.2581 34.6443 21.9985C34.9771 26.6256 34.9774 30.5459 34.6431 34.0275C34.6431 34.7347 34.0673 35.3105 33.3597 35.3105C32.6047 35.3105 28.6959 36.0871 19.4681 35.3105Z" fill="#1D2930"/>
</svg>
