<svg width="38" height="46" viewBox="0 0 38 46" fill="none" xmlns="http://www.w3.org/2000/svg">
<path d="M5.68846 43.423C5.37505 43.8799 5.96036 44.3596 6.32725 44.779C6.57059 45.0571 6.92421 45.2136 7.29369 45.2175L33.221 45.4896C34.3295 45.5013 35.2463 44.6378 35.298 43.5305C35.8469 31.7785 36.5915 19.7017 37.6538 8.01737C37.8064 6.33749 35.3398 6.04891 34.9765 5.96845C31.0615 5.87977 29.6568 5.85754 28.4817 5.83078C27.9081 4.33659 27.0516 3.98389 26.3344 3.55078C24.992 2.74171 23.8631 2.28452 22.6661 1.97082C18.1065 0.775532 1.71807 0.433181 0.847694 0.524116C0.560152 0.531577 0.332966 0.770292 0.339748 1.05784C0.667578 14.2511 0.444811 36.1983 0.444185 36.2717C0.435073 39.7555 0.268064 38.6074 0.909239 39.7813C1.06895 40.0798 1.37451 40.2534 1.70782 40.2467C3.21433 40.2092 4.72733 40.1804 6.24498 40.1692C6.11363 41.3169 5.94167 42.3558 5.70643 43.3973L5.68846 43.423ZM7.29335 40.1624C14.5758 40.0937 21.956 40.2883 29.1453 40.8716C29.6801 40.9202 30.0828 40.4133 29.9301 39.9062C26.5039 28.9087 34.5337 18.7146 29.0029 6.88398C30.9165 6.92272 32.8286 6.96231 34.8011 7.00639C33.608 11.4224 33.9093 28.791 33.3321 43.0575C31.8918 43.9504 21.7314 42.3843 6.82439 43.1592C7.06372 42.0199 7.1715 41.1867 7.29335 40.1624ZM17.4042 2.19919C18.1217 2.30379 18.4114 2.33627 18.8354 2.77021C19.8336 3.78876 20.6635 6.03515 21.5834 6.88602C21.7431 7.03318 22.0191 7.04538 22.2131 6.94773C22.2888 6.90926 24.4536 4.98229 26.0691 4.82099C26.8652 4.74774 27.3927 5.79379 27.6147 6.50217C30.7395 16.245 26.2949 28.4995 27.9534 39.0638C19.0031 38.1677 10.0371 37.9566 1.46924 38.2873C1.46984 38.2158 1.69064 13.4995 1.39464 1.57324C15.3921 1.91789 16.0656 1.98664 17.4042 2.19919Z" fill="#D94539"/>
<path d="M6.60361 22.233C6.31742 22.233 6.08447 22.4642 6.08277 22.7504C6.08108 23.0386 6.31301 23.2726 6.60055 23.2746L20.6909 23.3574H20.6939C20.9846 23.3574 21.2147 23.1212 21.2147 22.8365V11.2467C21.2147 10.9591 20.9815 10.7258 20.6939 10.7258C20.4064 10.7258 20.1731 10.9591 20.1731 11.2467V22.3123L6.60666 22.233C6.60564 22.233 6.60462 22.233 6.60361 22.233Z" fill="#D94539"/>
<path d="M9.95222 20.4612C10.0481 20.4612 10.1258 20.3834 10.1258 20.2876V16.5872C10.1258 16.4914 10.0481 16.4136 9.95222 16.4136H8.21878C8.1229 16.4136 8.04517 16.4914 8.04517 16.5872V20.2876C8.04517 20.3834 8.1229 20.4612 8.21878 20.4612H9.95222Z" fill="#D94539"/>
<path d="M13.6095 20.5588C13.7054 20.5588 13.7831 20.4811 13.7831 20.3852V15.3682C13.7831 15.2723 13.7054 15.1946 13.6095 15.1946H11.876C11.7801 15.1946 11.7024 15.2723 11.7024 15.3682V20.3852C11.7024 20.4811 11.7801 20.5588 11.876 20.5588H13.6095Z" fill="#D94539"/>
<path d="M15.7664 16.9287V20.4664C15.7664 20.5624 15.8441 20.64 15.94 20.64H17.6734C17.7693 20.64 17.847 20.5624 17.847 20.4664V16.9287C17.847 16.8328 17.7693 16.7551 17.6734 16.7551H15.94C15.8441 16.7551 15.7664 16.8328 15.7664 16.9287Z" fill="#D94539"/>
<path d="M5.18061 18.3471C5.36982 18.3471 5.55225 18.244 5.64448 18.0636C7.12085 15.1827 9.69078 12.841 12.6957 11.6393C12.9629 11.5328 13.0928 11.2297 12.986 10.9625C12.8792 10.6946 12.5757 10.5678 12.3092 10.6722C7.89913 12.4359 4.9409 16.4613 4.79106 17.846C4.75795 18.152 4.8609 18.3471 5.18061 18.3471Z" fill="#D94539"/>
<path d="M11.8675 9.69092C11.7835 9.69376 13.0737 9.66407 14.7382 9.62311C14.5285 10.3618 14.2534 11.203 13.9295 11.9024C13.8088 12.1635 13.9224 12.4734 14.1835 12.5942C14.4486 12.7159 14.7554 12.5979 14.8749 12.3405C15.343 11.3274 15.6578 10.2237 15.9277 9.21621C15.9681 9.05819 15.9325 8.89068 15.8314 8.76319C15.7304 8.63637 15.5754 8.55906 15.4126 8.56584C15.3413 8.56752 11.7962 8.65093 11.8675 8.64926C11.58 8.64926 11.3467 8.88255 11.3467 9.17009C11.3467 9.45763 11.58 9.69092 11.8675 9.69092Z" fill="#D94539"/>
<path d="M5.00521 29.7924H20.4478C20.7353 29.7924 20.9686 29.5591 20.9686 29.2716C20.9686 28.984 20.7353 28.7507 20.4478 28.7507H5.00521C4.71767 28.7507 4.48438 28.984 4.48438 29.2716C4.48438 29.5591 4.71767 29.7924 5.00521 29.7924Z" fill="#D94539"/>
<path d="M13.523 32.5872H7.60628C7.31874 32.5872 7.08545 32.8205 7.08545 33.108C7.08545 33.3955 7.31874 33.6288 7.60628 33.6288H13.523C13.8105 33.6288 14.0438 33.3955 14.0438 33.108C14.0438 32.8205 13.8105 32.5872 13.523 32.5872Z" fill="#D94539"/>
</svg>
