<svg width="40" height="37" viewBox="0 0 40 37" fill="none" xmlns="http://www.w3.org/2000/svg">
<path d="M0.456229 0.91603L1.86952 0.921919C1.83575 8.81261 2.14639 17.003 2.12116 24.8673C2.12019 25.1714 2.36928 25.416 2.67343 25.4161C16.868 25.4192 14.3333 25.3415 18.9757 25.3055V28.0173C18.105 28.1845 17.449 28.889 17.449 29.7316C17.449 30.6983 18.312 31.4844 19.3726 31.4844C20.4333 31.4844 21.2962 30.6983 21.2962 29.7316C21.2962 28.9299 20.6993 28.2598 19.8918 28.0519V25.2986C20.8988 25.2964 21.9077 25.3069 22.9126 25.2466C23.8297 25.99 24.9514 26.5384 26.2452 26.8344C27.2778 27.0704 28.2698 27.0885 29.2477 26.9311C29.5695 27.6109 30.2881 28.0979 31.0495 28.1265C32.5152 30.6608 34.3148 33.4476 35.9814 35.8545C36.2378 35.9266 36.6946 36.0963 37.1004 36.241C37.6313 36.6632 39.7873 36.66 39.9976 34.6553C40.0154 34.484 39.9322 34.33 39.8007 34.2376C39.7635 34.1122 34.8507 26.2712 34.7096 26.177C34.798 25.7385 34.7775 25.2453 34.6866 24.793H36.47C36.8481 24.793 37.0205 24.5887 37.0205 24.3362C37.0205 16.8528 36.9322 8.69682 36.9294 1.06788L38.5603 1.07467H38.5621C38.8141 1.07467 39.0189 0.870707 39.0201 0.61844C39.0213 0.365578 38.8171 0.159829 38.5639 0.158636L0.459807 0C0.459211 0 0.458614 0 0.458018 0C0.20605 0 0.00119566 0.20396 2.93163e-06 0.456226C-0.000891663 0.709088 0.203068 0.914837 0.456229 0.91603ZM26.4492 25.9411C22.7388 25.0924 20.6169 21.8988 21.1692 17.995C21.7554 13.8515 26.0648 11.2832 29.8294 12.144C33.4616 12.9747 35.6936 16.8118 34.805 20.6972C33.9471 24.4466 30.1998 26.7992 26.4492 25.9411ZM30.9976 26.4336C32.0103 26.0163 32.9285 25.3931 33.6908 24.6022C34.5334 27.2456 31.8218 27.7069 30.9976 26.4336ZM39.0606 34.6838C38.8782 35.5719 37.9947 35.6585 37.5629 35.4687C37.5621 35.4684 37.5612 35.4685 37.5604 35.4682L32.8494 27.9624C33.3957 27.8358 33.8966 27.5305 34.2576 27.1014C34.2964 27.1633 38.9457 34.573 39.0606 34.6838ZM34.3545 23.8188C34.9799 22.9726 35.4486 21.9905 35.6977 20.9011C36.6991 16.5237 34.1582 12.1941 30.0337 11.2506C25.755 10.2736 20.9265 13.1717 20.2621 17.8662C19.9501 20.0723 20.3985 22.0775 21.4517 23.6505C15.6171 23.4604 10.0828 23.4477 3.64757 23.716C3.64194 16.1774 3.53122 8.49629 3.52711 1.00228C14.2644 1.00446 25.2699 1.08046 36.0134 1.08264C36.0163 8.5461 36.1004 16.3644 36.1038 23.877H34.3827C34.3732 23.8579 34.3641 23.8369 34.3545 23.8188Z" fill="#1D2930"/>
</svg>
