<svg width="46" height="46" viewBox="0 0 46 46" fill="none" xmlns="http://www.w3.org/2000/svg">
<path d="M18.028 36.1449C17.7476 36.077 17.4679 36.254 17.4024 36.5334C17.337 36.8135 17.5113 37.0936 17.7914 37.1594C19.8714 37.6458 22.1581 37.7164 24.4008 37.2733C24.6829 37.2177 24.8664 36.9437 24.8108 36.6616C24.7548 36.3795 24.4818 36.1978 24.1987 36.252C22.1734 36.6515 20.0392 36.6148 18.028 36.1449Z" fill="#D94539"/>
<path d="M9.17797 4.12442C9.36006 3.90198 9.32717 3.57375 9.10473 3.392L5.41719 0.374154C5.19407 0.191049 4.86617 0.223601 4.68409 0.447396C4.502 0.669835 4.53489 0.998069 4.75733 1.17982L8.44487 4.19767C8.66954 4.38149 8.99717 4.34566 9.17797 4.12442Z" fill="#D94539"/>
<path d="M0.922318 10.0332L5.75936 10.5357C6.03534 10.5664 6.3009 10.365 6.33139 10.0712C6.36089 9.785 6.15303 9.52933 5.86719 9.49949L1.03015 8.99697C0.745316 8.96442 0.487612 9.17533 0.458112 9.46152C0.428611 9.7477 0.63647 10.0034 0.922318 10.0332Z" fill="#D94539"/>
<path d="M5.82782 16.5396L2.33153 18.7355C2.08807 18.8881 2.01449 19.2096 2.16741 19.453C2.32112 19.6983 2.64348 19.7696 2.88559 19.6171L6.38189 17.4212C6.62535 17.2686 6.69893 16.9472 6.546 16.7037C6.39274 16.4596 6.07196 16.3857 5.82782 16.5396Z" fill="#D94539"/>
<path d="M45.3644 21.813C45.3787 21.8204 45.393 21.8269 45.4073 21.8343C45.128 21.2969 44.8931 20.7364 44.7055 20.1605C44.0468 20.0489 43.3715 19.8693 42.7236 19.6525C42.7796 19.2138 42.8012 18.8017 42.7729 18.4257C43.606 17.9859 44.397 17.4655 45.1244 16.8646C45.4088 16.6292 45.4489 16.2074 45.2135 15.9233C45.1826 15.8858 45.1417 15.8642 45.1051 15.8353C44.5268 14.8369 43.8803 13.8617 43.179 12.9393C43.0207 12.7308 42.76 12.6263 42.4276 12.7081C41.6528 12.8959 40.8974 13.171 40.1663 13.5009L39.0676 12.3974C39.2867 11.4961 39.3783 10.5727 39.328 9.64576C39.4558 9.30205 39.2848 8.9191 38.9422 8.78825C37.4188 8.20387 35.6895 7.88441 35.1656 7.89409C34.899 7.86404 34.6297 7.99319 34.4978 8.24504C34.3689 8.49232 34.2478 8.74375 34.1335 8.99836C34.1334 8.99819 34.1334 8.99798 34.1333 8.99781C32.1225 4.52597 27.7093 1.28297 22.8913 0.735684C18.0563 0.180264 12.9405 2.4562 10.1631 6.39703C7.33544 10.403 6.97024 15.9755 9.25364 20.2615C10.6835 22.9568 13.0101 25.1059 13.5136 27.9221C13.6645 28.7613 13.6473 29.6975 13.813 30.6266C13.9717 31.473 14.3674 32.6171 15.3531 33.2593C15.4229 33.3048 15.7332 33.4702 15.8029 33.4874C15.5591 33.9405 15.3151 34.4746 15.27 35.0659C15.2261 35.643 15.3967 36.1876 15.7211 36.5826C15.0855 37.4161 15.0697 38.5794 15.7361 39.4448C15.3489 40.5094 15.8203 41.5844 16.4981 41.9729C16.5161 41.9905 16.5357 42.0046 16.5563 42.0196C16.6053 42.1066 18.1376 44.1895 19.1851 45.1402C19.2381 45.3038 19.362 45.4412 19.5408 45.4873C20.8662 45.8325 22.2513 45.8732 23.5311 45.3409C23.6855 45.2769 23.7846 45.1448 23.8257 44.9949C24.8265 44.0577 25.7708 42.7701 26.7292 41.8632C27.0666 41.7183 27.5234 41.1333 27.6113 40.4167C27.6588 40.0273 27.5945 39.6211 27.4439 39.2624C28.0656 38.3693 27.9982 37.2077 27.3206 36.4028C27.9542 35.5515 27.7551 34.5162 27.2462 33.5851C28.0722 33.4561 28.5475 32.9578 28.818 32.2974C29.8314 32.602 30.9777 32.7676 31.5311 32.7676C31.8251 32.7676 31.9542 32.5963 32.0245 32.547C32.4671 32.3671 32.9098 32.1871 33.3524 32.0072C33.5327 31.2286 33.7661 30.4251 33.9773 29.6432C34.5762 29.6352 34.7657 29.6366 35.1618 29.6369L36.6015 31.7727C36.8072 32.0773 37.2213 32.1611 37.5295 31.9531C37.5493 31.9398 37.5598 31.9193 37.5777 31.9043C38.5511 31.6119 39.4705 31.1254 40.2707 30.4976C40.6596 30.4156 40.829 30.0696 40.7822 29.7541C40.9074 29.3003 41.078 28.8587 41.3024 28.4449C40.9786 27.8736 40.6563 27.2109 40.3852 26.586C40.711 26.2078 41.0524 25.8443 41.414 25.5021C41.4835 25.5181 43.6598 26.0166 43.5903 26.0007C43.9892 26.0721 44.2878 25.8649 44.3885 25.5608C45.0761 24.2524 45.4968 22.777 45.5375 22.3568C45.5679 22.1507 45.4979 21.9572 45.3644 21.813ZM14.8377 30.4395C14.6869 29.5943 14.7024 28.6479 14.5389 27.7383C13.9846 24.638 11.5656 22.3984 10.1736 19.7725C8.06989 15.8243 8.40796 10.6905 11.0142 6.99721C13.5793 3.35884 18.3052 1.2538 22.7733 1.77057C27.7436 2.33505 32.0998 5.9807 33.5737 10.4502C33.5389 10.5575 33.5095 10.6663 33.4772 10.7743C32.7079 10.6754 31.9232 10.6784 31.155 10.783L29.8645 8.67771C29.6713 8.36372 29.2596 8.26335 28.9453 8.45731C28.9091 8.47948 28.8862 8.51296 28.8558 8.54043C25.9949 10.2658 25.9974 10.1767 25.8474 10.4439C25.7326 10.6247 25.6958 10.8511 25.7874 11.0622L26.7355 13.2495L25.5429 15.2339L22.7797 14.2428C22.329 14.0842 21.8582 14.4324 21.8874 14.9122C21.4406 16.0741 21.1576 17.266 20.7459 18.2724C20.6052 18.6151 20.7974 19.0529 21.1491 19.1846L23.8758 20.2078L24.1626 22.1629C23.5685 22.7813 22.8697 23.3093 22.1103 23.708C22.0534 23.7166 21.996 23.7205 21.9408 23.7446C21.6024 23.8931 21.4485 24.2871 21.597 24.6255L23.0005 27.8265C23.1103 28.0774 23.3555 28.2266 23.6128 28.2266C23.6137 28.2266 23.6147 28.226 23.6156 28.226C23.9266 28.2768 23.7015 28.2865 26.3072 27.1987C26.8908 27.6034 27.1389 27.7504 28.0264 28.3618L27.4451 30.9611C27.1864 31.3784 27.4425 31.8126 27.8227 31.9515C27.715 32.1879 27.4965 32.4895 27.2556 32.5303C24.0782 33.0496 17.1409 33.181 15.9214 32.3858C15.2446 31.945 14.9581 31.0817 14.8377 30.4395ZM22.9076 44.4477C22.0582 44.7431 21.0838 44.7686 20.001 44.5178C19.8282 44.2172 19.7153 44.401 18.1997 42.4585C20.4182 42.8592 22.6879 42.7562 24.9009 42.2828C22.6317 44.8648 23.2213 44.0692 22.9076 44.4477ZM26.3686 35.9096C26.1403 36.0877 26.0287 36.6591 26.3513 36.9065C26.8667 37.3026 27.006 38.1184 26.5713 38.7001C26.5458 38.7127 26.5182 38.7177 26.4944 38.7348C26.2611 38.903 26.2082 39.2285 26.3764 39.4618C26.6447 39.834 26.6725 40.4275 26.357 40.8281C26.2869 40.8398 21.4576 42.5051 17.0769 41.1234C16.5553 40.7069 16.5307 40.0264 16.8122 39.592C16.9685 39.3506 16.8997 39.0278 16.6582 38.8711C16.6336 38.8553 16.6056 38.8516 16.5795 38.8404C16.1214 38.2833 16.2155 37.4604 16.7132 37.0394C17.0189 36.7808 16.8916 36.2162 16.6487 36.0445C16.4134 35.8777 16.2798 35.525 16.309 35.1446C16.3412 34.7201 16.5426 34.3016 16.7555 33.9124C16.7952 33.8401 16.8111 33.763 16.8145 33.6859C19.6322 34.1506 23.2856 34.0771 26.1404 33.7372C26.4261 34.3324 27.08 35.3545 26.3686 35.9096ZM36.2424 28.8477C36.1906 28.5714 35.9769 28.3604 35.6959 28.3179C35.5445 28.2716 33.9592 28.3204 33.0203 28.3082C32.6353 28.1558 32.2559 28.3726 32.1435 28.7162C31.8482 29.618 31.5156 30.5145 31.1618 31.3939C30.3656 31.3209 29.5852 31.1552 28.8298 30.8952L29.4468 28.1364C29.5258 27.7824 29.3087 27.3997 28.897 27.3375C28.018 26.7248 27.6312 26.4979 26.9191 25.9935C26.7661 25.8168 26.5471 25.7356 26.268 25.7866C26.0436 25.839 25.2463 26.2069 23.9817 26.7355L23.0862 24.6931C23.9464 24.1918 24.7378 23.5559 25.393 22.8148C25.5606 22.6249 25.5917 22.3686 25.511 22.1459C25.1059 19.6789 25.2356 19.6308 24.9862 19.3392C24.7527 18.9915 24.6243 19.1136 22.2115 18.1552C22.5555 17.1799 22.6769 16.6762 23.0055 15.7442L25.3863 16.5982C25.4127 16.6203 25.4314 16.6489 25.4619 16.6672C25.7836 16.8594 26.1909 16.7509 26.3791 16.4387C27.9696 13.7099 28.048 13.8355 28.0473 13.4585C28.1195 13.2943 28.1295 13.1036 28.0525 12.9258L27.2422 11.0564L29.083 9.96085L30.0911 11.6048C30.1378 11.9716 30.4367 12.1879 30.7458 12.1879C30.9505 12.1879 32.1179 11.8436 33.7688 12.1655C33.9903 12.2061 34.1986 12.1262 34.3499 11.9825C34.8057 11.6787 34.509 11.313 35.4855 9.27013C36.3392 9.39212 37.1797 9.59405 37.996 9.87362C38.0734 12.0776 37.4355 12.3289 37.8088 12.8803C37.8972 13.2361 38.0125 13.1765 39.52 14.746C40.0353 15.2654 40.3907 14.67 42.3771 14.1174C42.8757 14.7975 43.3428 15.5009 43.7727 16.2224C43.2219 16.6327 42.637 16.9946 42.0269 17.308C41.9825 17.3084 41.9393 17.3 41.8942 17.3094C41.5338 17.3881 41.3052 17.7448 41.3839 18.1049C41.5226 18.7404 41.4589 19.546 41.1889 20.5701C41.0878 20.953 41.3423 21.3717 41.7904 21.403C42.5877 21.7496 43.3605 22.159 44.1055 22.613C43.9274 23.2908 43.6854 23.949 43.3819 24.581L41.2405 24.0904C40.8836 24.0078 40.53 24.2298 40.4435 24.5842C39.8478 25.1535 39.2942 25.7694 38.7924 26.4236C38.5506 26.5881 38.4297 26.89 38.5278 27.1809L39.3239 29.5411C38.7399 29.9785 38.0848 30.3226 37.393 30.5547L36.2424 28.8477Z" fill="#D94539"/>
<path d="M34.446 15.6461C34.2065 15.6689 31.9669 15.0392 30.0762 17.0352C28.7298 18.4565 28.501 20.8082 29.5436 22.4653C30.5863 24.1223 32.8012 24.9338 34.6692 24.3477C39.0246 22.9809 38.6969 16.647 34.446 15.6461Z" fill="#D94539"/>
</svg>
