<svg width="40" height="45" viewBox="0 0 40 45" fill="none" xmlns="http://www.w3.org/2000/svg">
<path d="M2.40984 18.1769C2.36278 18.1931 2.25233 18.2555 2.19201 18.3245C1.36439 19.254 1.07357 19.6847 0.185152 20.9212C-0.198852 28.8583 0.109749 36.6088 0.260598 44.3771C14.8519 44.8383 17.6012 44.1192 37.2923 44.6034C38.2561 44.023 38.8094 43.6626 39.4914 42.6899C39.6032 42.5889 39.6752 42.446 39.6674 42.2841C39.3015 34.685 40.3304 27.3841 39.8869 19.6141C39.8756 19.4164 39.4262 19.0022 39.3571 18.9577C37.9152 18.0284 36.3905 16.8735 34.7068 15.4416C35.0431 10.5164 35.4938 5.32977 35.3509 0.520726C35.3374 0.0525824 34.7345 0.0423979 34.6637 0.0194463C25.9691 1.00243 16.766 0.352492 8.13789 0.0580584C7.79202 -0.129224 7.18404 0.154569 7.2667 0.651084C7.06721 1.01468 6.8128 1.41736 6.61529 1.66148C6.61339 1.73909 6.47078 10.9859 6.52833 14.6574C5.48191 15.5222 4.25736 16.4815 2.40984 18.1769ZM14.6436 30.7721C10.6285 34.3732 6.54107 38.0612 3.10722 41.5178C3.14499 34.0731 3.67584 27.2497 3.17344 19.9963C3.2428 20.0658 13.6747 30.5543 14.6436 30.7721ZM4.74688 41.3491C9.79825 36.3674 16.0189 31.0068 21.1634 26.2891C26.5605 31.6478 33.312 37.0873 38.6436 42.3964C38.645 42.4042 38.6475 42.4115 38.6492 42.4192C29.348 41.7153 10.5199 40.797 4.74688 41.3491ZM38.8756 20.4686C39.1723 27.1603 38.4875 33.161 38.5529 39.6349C38.4566 39.3472 38.2726 39.063 37.925 38.7658C35.8795 37.0172 32.0752 33.9183 27.9864 30.7897C31.5677 27.249 35.2671 24.0203 38.8756 20.4686ZM38.3455 19.5308C37.0596 20.8024 35.7129 22.0785 34.3644 23.3362C34.3789 21.179 34.4813 18.9559 34.6238 16.7266C35.9426 17.8209 37.1719 18.7472 38.3455 19.5308ZM34.3247 1.10058C34.4766 8.58855 33.2588 16.7991 33.3144 24.3125C31.2547 26.225 29.1354 28.1846 27.1523 30.1506C25.1621 28.6407 24.9696 28.6266 21.6701 25.328C21.3273 24.9852 21.008 25.0205 20.8084 25.204C19.0875 26.7873 17.2333 28.4504 15.2705 30.2097C15.2061 29.6767 14.7853 29.9625 8.40106 23.7262C8.5152 23.6308 8.59209 23.4927 8.59209 23.3323C8.59209 15.4407 8.41885 8.93142 8.41054 1.10871C16.9106 1.40814 25.8639 2.01078 34.3247 1.10058ZM6.8172 22.1661C5.84688 21.203 4.90334 20.2567 3.36519 18.716C4.33041 17.8393 5.37971 16.9388 6.5542 15.9801C6.59573 18.0476 6.66551 20.1206 6.8172 22.1661Z" fill="#1D2930"/>
<path d="M11.9988 12.8001H19.5613C19.8485 12.8001 20.0815 12.567 20.0815 12.2798V4.71727C20.0815 4.43005 19.8485 4.19702 19.5613 4.19702H11.9988C11.7115 4.19702 11.4785 4.43005 11.4785 4.71727V12.2798C11.4785 12.567 11.7115 12.8001 11.9988 12.8001ZM12.519 5.23752H19.0411V11.7596H12.519V5.23752Z" fill="#1D2930"/>
<path d="M23.1965 8.0007H29.8862C30.1735 8.0007 30.4065 7.76767 30.4065 7.48045C30.4065 7.19323 30.1735 6.96021 29.8862 6.96021H23.1965C22.9093 6.96021 22.6763 7.19323 22.6763 7.48045C22.6763 7.76767 22.9093 8.0007 23.1965 8.0007Z" fill="#1D2930"/>
<path d="M27.7052 11.7094C27.9924 11.7094 28.2254 11.4764 28.2254 11.1892C28.2254 10.902 27.9924 10.6689 27.7052 10.6689H23.7058C23.4186 10.6689 23.1855 10.902 23.1855 11.1892C23.1855 11.4764 23.4186 11.7094 23.7058 11.7094H27.7052Z" fill="#1D2930"/>
<path d="M29.5234 17.0676H12.217C11.9298 17.0676 11.6968 17.3007 11.6968 17.5879C11.6968 17.8751 11.9298 18.1081 12.217 18.1081H29.5234C29.8106 18.1081 30.0436 17.8751 30.0436 17.5879C30.0436 17.3007 29.8106 17.0676 29.5234 17.0676Z" fill="#1D2930"/>
<path d="M15.9251 21.3577H12.1438C11.8566 21.3577 11.6235 21.5907 11.6235 21.8779C11.6235 22.1651 11.8566 22.3982 12.1438 22.3982H15.9251C16.2123 22.3982 16.4453 22.1651 16.4453 21.8779C16.4453 21.5907 16.2123 21.3577 15.9251 21.3577Z" fill="#1D2930"/>
</svg>
