<svg width="46" height="32" viewBox="0 0 46 32" fill="none" xmlns="http://www.w3.org/2000/svg">
<path d="M45.588 16.1117C44.0326 14.1031 42.1662 11.7963 40.0646 9.66261C41.3805 8.91707 42.3348 8.31962 43.3409 7.82094C43.7545 7.61673 43.7083 7.00909 43.2673 6.87046C41.8391 6.42164 40.4847 6.06998 39.2814 5.82885C39.4213 5.38017 39.2048 4.94437 38.6901 4.93489C38.9136 3.58167 39.1292 2.04818 39.0156 0.637851C38.9814 0.212702 38.4726 0.011618 38.1564 0.300736C37.317 1.06917 35.5185 2.26686 34.3462 3.27658C34.2652 3.34681 34.208 3.44045 34.1826 3.54413C34.097 3.89479 34.0384 4.30933 33.9905 4.74017C24.9335 -0.777558 17.9672 0.606619 10.2123 6.5106C6.39238 9.42625 3.26504 13.1365 0.240706 16.725C0.0829764 16.9125 0.0891216 17.1779 0.235188 17.3662C0.250614 17.8762 0.252579 18.5989 0.382509 18.9424C1.2467 21.2273 10.1203 29.5205 16.6577 31.116C23.1951 32.7114 29.7791 31.6306 35.4933 28.0766C38.937 25.9347 42.085 22.6312 44.7832 19.6036C45.211 19.1236 45.6499 18.6128 45.7956 17.9866C45.9085 17.501 45.9336 16.6821 45.6577 16.2389C45.6402 16.1943 45.6183 16.1509 45.588 16.1117ZM12.3186 15.8709C12.3186 10.6175 16.3874 6.30476 21.5378 5.89741V9.69647C18.4834 10.0869 16.0746 12.7073 16.1005 15.9191H12.3211C12.321 15.9028 12.3186 15.8871 12.3186 15.8709ZM21.5378 10.7346V13.4802C20.5418 13.8115 19.782 14.7487 19.8034 15.9191H17.1279C17.1065 13.2616 19.0594 11.1161 21.5378 10.7346ZM27.5205 15.6622H24.8515C24.8409 15.593 24.8584 15.6125 24.7876 15.303C25.2857 14.9939 25.2292 15.0228 27.1193 13.8444C27.1201 13.8464 27.4794 14.6243 27.5205 15.6622ZM24.7148 16.6896H27.4603C27.1007 18.954 25.279 20.7331 22.9933 21.0258V18.3047C23.8017 18.0837 24.444 17.4764 24.7148 16.6896ZM24.0041 13.9792C23.6013 13.6204 23.0971 13.4121 22.5652 13.3621V10.6806C24.018 10.7458 25.3697 11.4046 26.3079 12.5242C26.2393 12.5674 23.8519 14.0754 24.0041 13.9792ZM20.0467 16.9464C20.4023 17.6987 21.1141 18.2426 21.9659 18.3671V21.0544C19.6282 20.8912 17.7106 19.1844 17.2384 16.9464H20.0467ZM28.4984 16.6896H32.2917C31.8959 21.6657 27.961 25.5335 22.9933 25.8524V22.0639C25.8468 21.7606 28.1249 19.5218 28.4984 16.6896ZM28.5481 15.6622C28.5228 14.8961 28.2568 13.6293 27.9756 13.3102C28.0484 13.2647 29.9932 12.0534 31.2219 11.2756C31.9197 12.6216 32.2945 14.1326 32.3266 15.6622H28.5481ZM27.1725 11.9773C27.1597 11.9561 27.1519 11.9324 27.136 11.9131C26.0008 10.5294 24.3446 9.71988 22.5652 9.65325V5.87099C25.6245 5.94373 28.5248 7.42755 30.3586 9.89045C30.3717 9.90792 30.3906 9.91704 30.4053 9.93234C27.8343 11.5526 29.0502 10.7883 27.1725 11.9773ZM16.1974 16.9464C16.6883 19.7523 19.0611 21.9124 21.9659 22.0817V25.8661C16.9753 25.6842 12.9043 21.8435 12.3786 16.9464H16.1974ZM44.5482 16.4475C42.0593 20.1002 38.4671 23.4981 34.3963 26.0445C30.7832 28.2959 26.7885 29.4954 22.96 29.5256C23.0249 29.3367 22.9779 29.4818 22.9933 26.8798C28.5371 26.5572 32.9306 22.2304 33.3212 16.6896H35.293C35.9724 16.6896 35.9728 15.6622 35.293 15.6622H33.3603C33.323 13.6977 32.8622 12.3327 32.0988 10.7303C34.2276 9.3939 34.5251 9.20662 34.5678 9.1806C36.0573 9.343 38.4879 10.5216 39.1352 10.1769C41.1803 12.2263 43.0089 14.4679 44.5482 16.4475ZM38.7721 9.20552C38.0025 9.09871 36.9328 8.69695 35.841 8.38848C37.3747 7.42595 37.8254 7.27343 38.5189 6.73167C39.4928 6.9029 40.5908 7.15858 41.7697 7.49453C40.8146 8.03014 39.923 8.58555 38.7721 9.20552ZM38.0156 1.75755C37.98 3.09926 37.721 4.47942 37.5721 5.40353C37.5033 5.44697 34.6456 7.25267 34.8266 7.13835C34.8978 6.21168 34.9672 4.80418 35.1451 3.94546C36.1463 3.09924 37.1358 2.44307 38.0156 1.75755ZM33.8876 5.87049C33.8129 6.87699 33.805 7.2111 33.7266 7.83231C33.6577 7.87593 31.0794 9.50654 31.2426 9.40334C31.2261 9.35986 31.2118 9.31555 31.1827 9.27642C29.1557 6.55442 25.948 4.90931 22.5652 4.83665V2.31899C26.4039 2.20815 30.6644 3.81269 33.8876 5.87049ZM10.8354 7.32797C13.783 5.08297 17.335 2.81831 21.5378 2.3858V4.87001C15.8432 5.27842 11.2634 10.0417 11.2937 15.9191H9.18863C8.50916 15.9191 8.50875 16.9464 9.18863 16.9464H11.3457C11.8767 22.4108 16.4084 26.7097 21.9659 26.8935C21.9818 29.5895 21.9379 29.304 21.9938 29.4992C17.548 29.2997 13.4803 27.489 9.84179 24.9951C6.59969 22.7739 4.2017 19.8402 1.33432 17.022C4.22789 13.5907 7.23316 10.0771 10.8354 7.32797Z" fill="#D94539"/>
</svg>
