<svg width="130" height="108" viewBox="0 0 130 108" fill="none" xmlns="http://www.w3.org/2000/svg">
<path fill-rule="evenodd" clip-rule="evenodd" d="M60.9866 91.0112C75.5791 101.188 92.2457 108.614 108.76 107.142C114.825 106.601 120.44 104.34 126.202 102.089C126.708 101.891 126.959 101.318 126.761 100.813C126.564 100.307 125.991 100.055 125.486 100.253C119.899 102.436 114.463 104.655 108.587 105.178C92.3221 106.629 75.9409 99.1458 61.6177 89.0498C61.6659 88.904 61.7161 88.7581 61.7664 88.6122C62.8717 85.4058 62.1703 80.7303 60.3636 75.8178C57.7429 68.686 52.8573 61.0229 48.4641 56.7902C46.4383 54.8366 44.4768 53.6098 42.8751 53.3519C41.5406 53.1357 40.3951 53.5004 39.5108 54.5345C38.7833 55.3888 38.3673 56.4776 38.2447 57.7539C38.0819 59.4574 38.4477 61.5256 39.2174 63.7761C42.0652 72.1034 50.4316 83.0615 54.9675 86.5779C56.3884 87.6797 57.8334 88.7607 59.3045 89.8182C59.0111 90.7403 58.7277 91.6207 58.38 92.4334C57.8696 93.6263 57.2244 94.663 56.1352 95.4106C54.1255 96.7911 51.7158 97.0255 49.2519 96.6661C45.3068 96.093 41.2271 94.0092 38.2186 92.2224C21.2968 82.1733 12.9424 64.7346 8.44871 47.2386C3.90274 29.5446 3.30786 11.7699 1.96336 1.28586C1.89302 0.746683 1.39863 0.363782 0.860028 0.43411C0.321425 0.501833 -0.0604183 0.99676 0.00791197 1.53594C1.36045 12.0773 1.9714 29.9432 6.53948 47.7283C11.1598 65.7114 19.8197 83.5877 37.2137 93.9181C40.4152 95.8169 44.7703 98.0049 48.9685 98.617C51.9369 99.0468 54.8289 98.6977 57.2486 97.0359C58.6594 96.067 59.5316 94.749 60.1908 93.2096C60.4862 92.5193 60.7394 91.7796 60.9866 91.0112ZM59.9436 87.8516C60.8761 84.976 60.1144 80.8475 58.5147 76.4976C55.9965 69.6445 51.3179 62.2757 47.0975 58.2071C45.6827 56.8449 44.3381 55.8577 43.1504 55.4487C42.2923 55.1518 41.5426 55.1883 41.0101 55.8134C40.3971 56.5323 40.166 57.5143 40.176 58.6604C40.1861 59.981 40.5217 61.5048 41.0824 63.1405C43.8136 71.1266 51.8243 81.6498 56.1734 85.0203C57.4113 85.9788 58.6694 86.9244 59.9436 87.8516Z" fill="#D94539"/>
<path fill-rule="evenodd" clip-rule="evenodd" d="M127.814 99.0517C127.747 99.5023 127.522 100.075 127.263 100.677C126.678 102.039 125.846 103.493 125.476 104.196C125.225 104.678 125.41 105.274 125.892 105.527C126.375 105.78 126.97 105.592 127.223 105.11C127.673 104.251 128.774 102.323 129.365 100.727C129.669 99.906 129.832 99.1506 129.799 98.6063C129.765 98.0723 129.548 97.7129 129.239 97.4576C128.913 97.1893 128.409 97.0304 127.735 97.0512C126.996 97.0747 125.941 97.3091 124.781 97.3951C123.808 97.468 122.745 97.4367 121.779 96.9523C121.292 96.7074 120.699 96.9028 120.456 97.3899C120.213 97.8743 120.408 98.4682 120.894 98.7105C122.707 99.6221 124.765 99.4241 126.391 99.1897C126.875 99.1194 127.476 99.0725 127.814 99.0517Z" fill="#D94539"/>
</svg>
