<svg width="65" height="53" viewBox="0 0 65 53" fill="none" xmlns="http://www.w3.org/2000/svg">
<path d="M16.0953 46.3315V43.6906C16.1108 43.4684 16.0785 43.2456 16.0006 43.0369C15.9226 42.8282 15.8008 42.6383 15.6433 42.4801C15.4858 42.3218 15.2961 42.1987 15.087 42.1191C14.8779 42.0394 14.6541 42.0049 14.4305 42.0179C14.1378 41.9989 13.8454 42.0582 13.5837 42.1899C13.322 42.3215 13.1007 42.5205 12.9428 42.7662C12.7988 42.5279 12.5929 42.3326 12.3466 42.2009C12.1004 42.0692 11.8229 42.006 11.5436 42.0179C11.3001 42.0057 11.0575 42.0569 10.8401 42.1666C10.6226 42.2762 10.4377 42.4404 10.3038 42.643V42.1236H9.38281V46.3315H10.3126V44.0163C10.2929 43.8724 10.3053 43.7259 10.3491 43.5874C10.3929 43.4488 10.4669 43.3216 10.5659 43.2147C10.6649 43.1079 10.7864 43.0242 10.9217 42.9695C11.057 42.9148 11.2029 42.8904 11.3488 42.8983C11.9598 42.8983 12.2697 43.2944 12.2697 44.0075V46.3491H13.1996V44.0163C13.1806 43.8725 13.1936 43.7264 13.2377 43.5882C13.2818 43.45 13.3558 43.3231 13.4546 43.2164C13.5535 43.1098 13.6746 43.026 13.8096 42.9711C13.9445 42.9161 14.09 42.8912 14.2357 42.8983C14.8644 42.8983 15.1655 43.2944 15.1655 44.0075V46.3491L16.0953 46.3315ZM29.8525 42.1236H28.3382V40.8471H27.4084V42.1236H26.5671V42.9599H27.4261V44.8966C27.4261 45.8738 27.8069 46.4548 28.8961 46.4548C29.303 46.4561 29.7021 46.3432 30.0473 46.1291L29.7817 45.3456C29.5347 45.492 29.2544 45.5738 28.9669 45.5833C28.5242 45.5833 28.3559 45.3015 28.3559 44.879V42.9599H29.8614L29.8525 42.1236ZM37.7074 42.0179C37.4829 42.0114 37.2607 42.0651 37.0643 42.1736C36.8679 42.2821 36.7046 42.4412 36.5916 42.6342V42.1236H35.6795V46.3315H36.6005V43.9723C36.6005 43.2768 36.9015 42.8895 37.486 42.8895C37.683 42.8868 37.8786 42.9227 38.0616 42.9951L38.345 42.1148C38.1347 42.04 37.9131 42.0013 37.6897 42.0003L37.7074 42.0179ZM25.8321 42.4581C25.3107 42.15 24.7114 41.9972 24.1052 42.0179C23.0337 42.0179 22.3341 42.5285 22.3341 43.3648C22.3341 44.0515 22.8477 44.474 23.7953 44.6061L24.2381 44.6677C24.7428 44.7381 24.9819 44.8702 24.9819 45.1079C24.9819 45.4336 24.6454 45.6185 24.0167 45.6185C23.5109 45.633 23.015 45.478 22.6086 45.1783L22.1659 45.8914C22.7023 46.2637 23.3449 46.4551 23.999 46.4372C25.221 46.4372 25.9295 45.865 25.9295 45.0639C25.9295 44.2628 25.3716 43.937 24.4506 43.805L24.0078 43.7434C23.6093 43.6906 23.2905 43.6113 23.2905 43.3296C23.2905 43.0479 23.5916 42.8366 24.0964 42.8366C24.5629 42.842 25.0203 42.9663 25.4247 43.1976L25.8321 42.4581ZM50.4993 42.0179C50.2748 42.0114 50.0526 42.0651 49.8562 42.1736C49.6598 42.2821 49.4965 42.4412 49.3835 42.6342V42.1236H48.4714V46.3315H49.3924V43.9723C49.3924 43.2768 49.6934 42.8895 50.2779 42.8895C50.4749 42.8868 50.6705 42.9227 50.8535 42.9951L51.1369 42.1148C50.9266 42.04 50.705 42.0013 50.4816 42.0003L50.4993 42.0179ZM38.6328 44.2187C38.6219 44.5145 38.6731 44.8092 38.7833 45.0841C38.8935 45.3589 39.0602 45.6079 39.2728 45.8151C39.4854 46.0222 39.7391 46.183 40.0177 46.2871C40.2964 46.3912 40.5938 46.4363 40.891 46.4196C41.444 46.4475 41.9874 46.2685 42.4142 45.9178L41.9714 45.1783C41.653 45.4197 41.2648 45.5524 40.8644 45.5568C40.524 45.5295 40.2064 45.3757 39.9748 45.1261C39.7433 44.8765 39.6147 44.5495 39.6147 44.2099C39.6147 43.8704 39.7433 43.5433 39.9748 43.2938C40.2064 43.0442 40.524 42.8904 40.8644 42.863C41.2648 42.8675 41.653 43.0002 41.9714 43.2416L42.4142 42.5021C41.9874 42.1514 41.444 41.9724 40.891 42.0003C40.5938 41.9836 40.2964 42.0287 40.0177 42.1328C39.7391 42.2369 39.4854 42.3976 39.2728 42.6048C39.0602 42.812 38.8935 43.0609 38.7833 43.3358C38.6731 43.6107 38.6219 43.9054 38.6328 44.2011V44.2187ZM47.2582 44.2187V42.1236H46.3372V42.6342C46.1808 42.4341 45.9788 42.2739 45.7478 42.1667C45.5168 42.0596 45.2635 42.0086 45.0088 42.0179C44.4217 42.0179 43.8586 42.2498 43.4434 42.6625C43.0282 43.0753 42.7949 43.6351 42.7949 44.2187C42.7949 44.8024 43.0282 45.3622 43.4434 45.775C43.8586 46.1877 44.4217 46.4196 45.0088 46.4196C45.2635 46.4289 45.5168 46.3779 45.7478 46.2707C45.9788 46.1636 46.1808 46.0034 46.3372 45.8033V46.3139H47.2582V44.2187ZM43.831 44.2187C43.8457 43.9711 43.933 43.733 44.082 43.534C44.231 43.335 44.4354 43.1836 44.6699 43.0986C44.9043 43.0135 45.1587 42.9985 45.4017 43.0554C45.6446 43.1122 45.8656 43.2385 46.0373 43.4186C46.2089 43.5987 46.3239 43.8247 46.368 44.069C46.4121 44.3132 46.3833 44.5649 46.2853 44.7931C46.1873 45.0213 46.0243 45.216 45.8164 45.3533C45.6085 45.4905 45.3647 45.5644 45.1151 45.5656C44.9398 45.5679 44.7659 45.534 44.6044 45.4661C44.4429 45.3983 44.2973 45.298 44.1767 45.1715C44.0561 45.0449 43.9631 44.895 43.9036 44.731C43.8441 44.5671 43.8194 44.3927 43.831 44.2187ZM32.7173 42.0179C32.1301 42.0261 31.5703 42.2658 31.1609 42.6843C30.7515 43.1028 30.5262 43.6659 30.5344 44.2496C30.5426 44.8333 30.7837 45.3898 31.2047 45.7967C31.6257 46.2037 32.1921 46.4277 32.7793 46.4196C33.4163 46.4521 34.0428 46.2481 34.5371 45.8474L34.0943 45.1695C33.7447 45.4482 33.3115 45.6031 32.8634 45.6097C32.559 45.6357 32.2563 45.5426 32.0198 45.3503C31.7834 45.1579 31.6317 44.8815 31.5971 44.5797H34.7408C34.7408 44.4652 34.7408 44.3508 34.7408 44.2276C34.7408 42.9071 33.9172 42.0267 32.7306 42.0267L32.7173 42.0179ZM32.7173 42.8366C32.8551 42.8337 32.9921 42.8578 33.1206 42.9076C33.249 42.9573 33.3664 43.0317 33.4659 43.1265C33.5654 43.2214 33.6451 43.3348 33.7005 43.4602C33.7559 43.5857 33.7859 43.7208 33.7888 43.8578H31.5749C31.5909 43.5753 31.7176 43.3102 31.9278 43.1193C32.138 42.9285 32.415 42.827 32.6996 42.8366H32.7173ZM55.7905 44.2276V40.4333H54.905V42.6342C54.7486 42.4341 54.5465 42.2739 54.3156 42.1667C54.0846 42.0596 53.8313 42.0086 53.5766 42.0179C52.9895 42.0179 52.4263 42.2498 52.0112 42.6625C51.596 43.0753 51.3627 43.6351 51.3627 44.2187C51.3627 44.8024 51.596 45.3622 52.0112 45.775C52.4263 46.1877 52.9895 46.4196 53.5766 46.4196C53.8313 46.4289 54.0846 46.3779 54.3156 46.2707C54.5465 46.1636 54.7486 46.0034 54.905 45.8033V46.3139H55.7905V44.2276ZM57.327 45.7197C57.3845 45.719 57.4417 45.7295 57.4952 45.7505C57.5461 45.7711 57.5926 45.801 57.6325 45.8385C57.6714 45.8765 57.7029 45.9213 57.7255 45.9706C57.7479 46.022 57.7595 46.0774 57.7595 46.1335C57.7595 46.1895 57.7479 46.2449 57.7255 46.2963C57.7029 46.3456 57.6714 46.3904 57.6325 46.4284C57.5926 46.4659 57.5461 46.4958 57.4952 46.5164C57.4422 46.5397 57.3849 46.5516 57.327 46.5516C57.243 46.551 57.161 46.5267 57.0904 46.4815C57.0199 46.4363 56.9637 46.372 56.9285 46.2963C56.9063 46.2448 56.8949 46.1894 56.8949 46.1335C56.8949 46.0775 56.9063 46.0221 56.9285 45.9706C56.951 45.9213 56.9825 45.8765 57.0214 45.8385C57.0613 45.801 57.1078 45.7711 57.1587 45.7505C57.2164 45.7277 57.2782 45.7172 57.3402 45.7197H57.327ZM57.327 46.4636C57.3712 46.4638 57.4149 46.4548 57.4554 46.4372C57.4935 46.4203 57.528 46.3964 57.5572 46.3667C57.6126 46.3067 57.6433 46.2281 57.6433 46.1467C57.6433 46.0652 57.6126 45.9866 57.5572 45.9266C57.5281 45.8969 57.4935 45.873 57.4554 45.8562C57.4149 45.8386 57.3711 45.8296 57.327 45.8297C57.2828 45.83 57.2392 45.839 57.1985 45.8562C57.1588 45.8724 57.1226 45.8963 57.0923 45.9266C57.0369 45.9866 57.0062 46.0652 57.0062 46.1467C57.0062 46.2281 57.0369 46.3067 57.0923 46.3667C57.1227 46.3969 57.1588 46.4209 57.1985 46.4372C57.2432 46.4563 57.2916 46.4653 57.3402 46.4636H57.327ZM57.3535 45.9398C57.3949 45.9378 57.4356 45.9503 57.4686 45.975C57.4822 45.9861 57.4929 46.0004 57.4998 46.0164C57.5067 46.0325 57.5097 46.05 57.5085 46.0674C57.5091 46.0821 57.5067 46.0966 57.5014 46.1103C57.496 46.1239 57.4879 46.1363 57.4775 46.1467C57.4518 46.1698 57.4191 46.1838 57.3845 46.1863L57.5129 46.3315H57.4111L57.2915 46.1863H57.2517V46.3315H57.1676V45.9442L57.3535 45.9398ZM57.2561 46.0146V46.1203H57.3535C57.3709 46.1254 57.3893 46.1254 57.4067 46.1203C57.4098 46.1141 57.4114 46.1073 57.4114 46.1004C57.4114 46.0936 57.4098 46.0868 57.4067 46.0806C57.4098 46.0745 57.4114 46.0677 57.4114 46.0608C57.4114 46.0539 57.4098 46.0472 57.4067 46.041C57.3893 46.0359 57.3709 46.0359 57.3535 46.041L57.2561 46.0146ZM52.3855 44.2276C52.4002 43.9799 52.4875 43.7418 52.6365 43.5428C52.7855 43.3438 52.9899 43.1924 53.2244 43.1074C53.4588 43.0223 53.7132 43.0073 53.9562 43.0642C54.1991 43.121 54.4201 43.2473 54.5917 43.4274C54.7634 43.6075 54.8784 43.8335 54.9225 44.0778C54.9666 44.322 54.9378 44.5737 54.8398 44.8019C54.7418 45.0301 54.5788 45.2248 54.3709 45.3621C54.163 45.4993 53.9192 45.5732 53.6696 45.5745C53.4943 45.5767 53.3204 45.5428 53.1589 45.4749C52.9974 45.4071 52.8518 45.3068 52.7312 45.1803C52.6105 45.0537 52.5176 44.9038 52.4581 44.7398C52.3986 44.5759 52.3739 44.4015 52.3855 44.2276ZM21.2891 44.2276V42.1236H20.3682V42.6342C20.2118 42.4341 20.0097 42.2739 19.7788 42.1667C19.5478 42.0596 19.2945 42.0086 19.0398 42.0179C18.4527 42.0179 17.8896 42.2498 17.4744 42.6625C17.0592 43.0753 16.8259 43.6351 16.8259 44.2187C16.8259 44.8024 17.0592 45.3622 17.4744 45.775C17.8896 46.1877 18.4527 46.4196 19.0398 46.4196C19.2945 46.4289 19.5478 46.3779 19.7788 46.2707C20.0097 46.1636 20.2118 46.0034 20.3682 45.8033V46.3139H21.2891V44.2276ZM17.862 44.2276C17.8767 43.9799 17.964 43.7418 18.113 43.5428C18.262 43.3438 18.4664 43.1924 18.7009 43.1074C18.9353 43.0223 19.1897 43.0073 19.4327 43.0642C19.6756 43.121 19.8966 43.2473 20.0682 43.4274C20.2399 43.6075 20.3549 43.8335 20.399 44.0778C20.4431 44.322 20.4143 44.5737 20.3163 44.8019C20.2183 45.0301 20.0553 45.2248 19.8474 45.3621C19.6395 45.4993 19.3957 45.5732 19.1461 45.5745C18.97 45.5779 18.7952 45.5449 18.6326 45.4776C18.4701 45.4103 18.3234 45.3102 18.2018 45.1835C18.0802 45.0569 17.9865 44.9065 17.9265 44.742C17.8664 44.5774 17.8415 44.4022 17.8532 44.2276H17.862Z" fill="white"/>
<path d="M39.4739 10.0579H25.5264V34.9755H39.4739V10.0579Z" fill="#FF5F00"/>
<path d="M26.4123 22.519C26.4097 20.1189 26.9565 17.7497 28.0113 15.5908C29.0661 13.4318 30.6013 11.5398 32.5005 10.058C30.1489 8.22082 27.3249 7.07841 24.3511 6.76129C21.3773 6.44418 18.3738 6.96517 15.6838 8.2647C12.9938 9.56424 10.7258 11.5899 9.13909 14.1102C7.55238 16.6304 6.71094 19.5436 6.71094 22.5168C6.71094 25.4899 7.55238 28.4031 9.13909 30.9234C10.7258 33.4436 12.9938 35.4693 15.6838 36.7688C18.3738 38.0684 21.3773 38.5893 24.3511 38.2722C27.3249 37.9551 30.1489 36.8127 32.5005 34.9756C30.6019 33.4942 29.0671 31.6029 28.0123 29.4448C26.9575 27.2867 26.4104 24.9183 26.4123 22.519Z" fill="#EB001B"/>
<path d="M58.2919 22.5188C58.2918 25.4922 57.4502 28.4056 55.8632 30.9259C54.2762 33.4463 52.0079 35.4719 49.3175 36.7713C46.6272 38.0706 43.6233 38.5913 40.6494 38.2737C37.6754 37.9561 34.8514 36.8132 32.5 34.9754C34.3979 33.4927 35.9322 31.6009 36.9873 29.4427C38.0423 27.2845 38.5906 24.9162 38.5906 22.5166C38.5906 20.1171 38.0423 17.7488 36.9873 15.5906C35.9322 13.4324 34.3979 11.5406 32.5 10.0578C34.8514 8.22012 37.6754 7.07715 40.6494 6.75959C43.6233 6.44202 46.6272 6.96267 49.3175 8.26202C52.0079 9.56137 54.2762 11.587 55.8632 14.1073C57.4502 16.6277 58.2918 19.5411 58.2919 22.5144V22.5188Z" fill="#F79E1B"/>
<path d="M56.769 32.3345V31.8239H56.9771V31.7183H56.4502V31.8239H56.676V32.3345H56.769ZM57.7918 32.3345V31.7183H57.6324L57.4464 32.1584L57.2605 31.7183H57.1188V32.3345H57.2339V31.8723L57.4066 32.2729H57.5261L57.6988 31.8723V32.3389L57.7918 32.3345Z" fill="#F79E1B"/>
</svg>
