<svg width="51" height="51" viewBox="0 0 51 51" fill="none" xmlns="http://www.w3.org/2000/svg">
<circle cx="17.3" cy="17.3" r="17.3" fill="#D94539"/>
<path d="M35.3547 8.2764C33.1605 5.98148 29.7181 4.71826 25.6315 4.71826C25.3899 4.71826 19.6224 4.75852 16.0693 8.52804C14.1166 10.5864 13.2057 13.3494 13.3919 16.7314C13.7442 23.1682 16.18 25.8658 18.1428 28.0299C18.3894 28.2966 18.6461 28.5633 18.8574 28.825C19.3249 29.3762 19.6682 30.0216 19.864 30.7173C19.7623 30.7734 19.6662 30.8391 19.5771 30.9136C19.3455 31.1214 19.1621 31.3772 19.0395 31.6631C18.9169 31.9491 18.8582 32.2584 18.8675 32.5694C18.8549 32.8686 18.8195 33.1663 18.7618 33.4602C18.6722 33.7398 18.6465 34.036 18.6865 34.3269C18.7266 34.6179 18.8314 34.8961 18.9933 35.1411C19.0348 35.1901 19.0802 35.2355 19.1292 35.277C18.8265 35.6814 18.6687 36.176 18.6813 36.6811V37.0082C18.6317 37.3044 18.6441 37.6076 18.7177 37.8986C18.7914 38.1897 18.9246 38.4623 19.1091 38.6992C19.2781 38.8598 19.4784 38.9837 19.6975 39.0634C19.9166 39.1431 20.1497 39.1767 20.3824 39.1622H20.9309C21.4538 40.1431 21.9242 41.1511 22.3401 42.1819C22.7427 43.3595 24.3834 43.5508 25.4 43.5508H26.024C28.7719 43.4501 29.094 42.9116 29.2349 42.6852C29.7039 41.5352 30.1055 40.3589 30.4377 39.1622C30.6331 39.1732 30.829 39.1614 31.0215 39.127C31.4859 38.9727 31.8882 38.6732 32.1692 38.2726C32.4501 37.872 32.5948 37.3917 32.5817 36.9026C32.5929 36.2584 32.3873 35.6292 31.9979 35.1159C32.3854 34.619 32.5913 34.0046 32.5817 33.3746C32.5817 33.2337 32.5817 33.0928 32.5817 32.9569C32.5817 32.3077 32.637 31.5779 32.0784 31.0193C31.9321 30.8791 31.7616 30.7666 31.5751 30.6871C31.6734 30.0269 31.9365 29.402 32.3401 28.8703C32.5213 28.6891 32.7075 28.513 32.8987 28.3318C35.0276 26.2835 37.6798 23.7369 38.012 16.2533C38.2083 13.0424 37.2672 10.2794 35.3547 8.2764V8.2764ZM24.1267 19.2226C24.3013 19.2903 24.4948 19.2907 24.6696 19.2237C24.8444 19.1567 24.9882 19.0272 25.0729 18.8602C25.1987 18.5875 25.29 18.3001 25.3446 18.0047C25.7321 16.8975 26.2706 15.9161 26.5625 15.8456C27.1312 16.1476 27.2017 17.4813 27.0658 18.4576C27.0407 18.6086 27.0256 18.7243 27.0155 18.7948C26.9835 18.995 27.0323 19.1998 27.1512 19.364C27.2701 19.5282 27.4494 19.6385 27.6496 19.6705C27.8498 19.7025 28.0546 19.6537 28.2188 19.5348C28.383 19.4159 28.4933 19.2366 28.5253 19.0364C28.5253 18.986 28.5555 18.8753 28.5756 18.7243C28.7317 17.8637 29.0789 16.7113 29.5017 16.4898H29.5319C29.7785 17.3252 29.1192 20.5764 28.631 22.982C28.062 25.4341 27.6651 27.923 27.4433 30.4305H24.6501C24.1468 28.206 22.3552 20.3398 22.1337 18.8049C22.0864 17.8984 22.3669 17.0052 22.9239 16.2885C23.0323 16.1336 23.1799 16.0103 23.3517 15.9312C23.3901 15.9574 23.4241 15.9897 23.4523 16.0268C23.6297 16.2449 23.7594 16.4978 23.833 16.7691C23.9067 17.0404 23.9227 17.3242 23.8801 17.602C23.7795 17.904 23.709 18.1556 23.6637 18.3217C23.6143 18.5026 23.6344 18.6954 23.7201 18.8621C23.8058 19.0289 23.9509 19.1575 24.1267 19.2226V19.2226ZM30.3019 31.9352C30.8907 31.9352 31.0215 32.0611 31.0266 32.0661C31.0683 32.1433 31.0891 32.23 31.087 32.3177H23.5027C23.4359 32.3177 23.3719 32.3442 23.3247 32.3914C23.2775 32.4386 23.251 32.5026 23.251 32.5694C23.251 32.6361 23.2775 32.7001 23.3247 32.7473C23.3719 32.7945 23.4359 32.821 23.5027 32.821H31.087V32.8965V33.3243L26.1952 33.274C26.1297 33.2752 26.0671 33.3014 26.0203 33.3473C25.9736 33.3931 25.9461 33.4551 25.9435 33.5206C25.9422 33.5538 25.9475 33.5869 25.9593 33.618C25.9711 33.6491 25.9891 33.6775 26.0121 33.7015C26.0351 33.7255 26.0628 33.7445 26.0934 33.7575C26.124 33.7706 26.1569 33.7773 26.1901 33.7772L30.9964 33.8276C30.9521 33.9643 30.8839 34.0921 30.7951 34.205L30.2213 34.2402H30.1006L21.1071 34.3107C20.8016 34.3268 20.4956 34.2928 20.2012 34.21C20.2012 34.0943 20.2364 33.898 20.2616 33.747C20.3309 33.3816 20.3729 33.0115 20.3874 32.6398C20.3371 32.051 20.8554 31.9051 21.2379 31.9705L30.3019 31.9352ZM27.9918 41.7893C27.3182 41.9457 26.6299 42.03 25.9385 42.041C24.9319 42.1215 23.9002 41.9252 23.7694 41.7138C23.4332 40.8555 23.0518 40.0156 22.627 39.1975H28.8575C28.5052 40.2795 28.1479 41.3917 27.9918 41.7893ZM30.6642 37.6625H21.3939C21.2681 37.6625 20.3018 37.6625 20.2012 37.6625C20.1855 37.4699 20.1855 37.2763 20.2012 37.0837C20.2012 36.9579 20.2012 36.8321 20.2012 36.7063C20.2012 35.9816 20.9007 35.8356 21.1524 35.8105L30.1257 35.74C30.2386 35.7327 30.3518 35.7495 30.4577 35.7895C30.5636 35.8294 30.6597 35.8914 30.7397 35.9715C30.9355 36.1871 31.0479 36.4655 31.0568 36.7566H28.0371C27.9704 36.7566 27.9064 36.7831 27.8592 36.8303C27.812 36.8775 27.7855 36.9415 27.7855 37.0082C27.7855 37.075 27.812 37.139 27.8592 37.1862C27.9064 37.2334 27.9704 37.2599 28.0371 37.2599H30.9964C30.9362 37.4262 30.8183 37.5655 30.6642 37.6524V37.6625ZM36.5575 16.1979C36.2606 23.0676 33.9456 25.287 31.9073 27.2397L31.3336 27.7983C30.7104 28.5518 30.3019 29.4594 30.1509 30.4254H28.943C29.1668 28.0168 29.5518 25.626 30.0955 23.2689C31.1474 18.0852 31.6053 15.5688 30.1257 15.0605C29.8926 14.973 29.6425 14.9401 29.3947 14.9646C29.1468 14.989 28.908 15.07 28.6964 15.2014C28.5309 15.3045 28.3816 15.4318 28.2535 15.5789C28.0467 15.1208 27.6923 14.7452 27.247 14.5119C27.0487 14.403 26.8278 14.3413 26.6017 14.3317C26.3756 14.3221 26.1504 14.3648 25.9435 14.4566C25.5 14.6866 25.129 15.035 24.8716 15.4631C24.7945 15.3377 24.7105 15.2168 24.6199 15.1008C24.4078 14.8096 24.1016 14.6005 23.7532 14.5089C23.4048 14.4172 23.0355 14.4485 22.7075 14.5975C21.4644 15.1159 20.4126 17.3454 20.6592 19.0011C20.8756 20.5412 22.5263 27.8235 23.1202 30.4254H21.3587C21.1005 29.4721 20.6329 28.5883 19.9898 27.8386C19.7533 27.5668 19.4865 27.2951 19.255 27.0132C17.3627 24.9297 15.2288 22.5643 14.8967 16.6509C14.7356 13.7017 15.4905 11.3212 17.1363 9.57988C20.2465 6.28847 25.5661 6.23815 25.6214 6.23815C29.2802 6.23815 32.3452 7.33528 34.2526 9.32824C35.9134 11.0444 36.6834 13.3544 36.5575 16.1979V16.1979Z" fill="#FCFFFE"/>
<path d="M31.147 8.12543C31.0856 8.09873 31.0162 8.09752 30.9539 8.12206C30.8916 8.1466 30.8416 8.19488 30.8149 8.25628C30.7882 8.31768 30.787 8.38717 30.8115 8.44946C30.8361 8.51175 30.8843 8.56174 30.9457 8.58844C33.3614 9.64028 36.059 12.056 35.1984 17.597C35.1934 17.6297 35.1949 17.6631 35.2028 17.6953C35.2107 17.7274 35.2249 17.7577 35.2446 17.7843C35.2642 17.811 35.2889 17.8335 35.3172 17.8506C35.3456 17.8676 35.377 17.879 35.4098 17.8839H35.45C35.5095 17.8835 35.5669 17.862 35.612 17.8233C35.6571 17.7846 35.6871 17.7312 35.6966 17.6725C36.6528 11.5074 33.2407 9.04642 31.147 8.12543V8.12543Z" fill="#FCFFFE"/>
<path d="M29.0588 8.42731C28.9921 8.40996 28.9212 8.41983 28.8617 8.45475C28.8023 8.48967 28.7591 8.54679 28.7418 8.61352C28.7244 8.68026 28.7343 8.75116 28.7692 8.81062C28.8041 8.87008 28.8612 8.91323 28.928 8.93059C31.1222 9.52445 33.8349 11.0141 34.2727 14.7233C34.2812 14.7842 34.3112 14.8401 34.3574 14.8807C34.4036 14.9214 34.4629 14.9441 34.5244 14.9447H34.5546C34.5871 14.941 34.6185 14.9308 34.647 14.9148C34.6755 14.8989 34.7006 14.8774 34.7207 14.8516C34.7408 14.8258 34.7557 14.7963 34.7643 14.7648C34.7729 14.7333 34.7752 14.7003 34.771 14.6679C34.3029 10.6618 31.4041 9.07653 29.0588 8.42731V8.42731Z" fill="#FCFFFE"/>
<path d="M27.0861 8.06992C26.6235 8.01611 26.1578 7.99258 25.6921 7.99946C25.6253 7.99946 25.5613 8.02597 25.5141 8.07316C25.4669 8.12035 25.4404 8.18436 25.4404 8.2511C25.4404 8.31783 25.4669 8.38184 25.5141 8.42903C25.5613 8.47622 25.6253 8.50273 25.6921 8.50273C26.1274 8.49491 26.5628 8.51509 26.9955 8.56312C27.0571 8.5625 27.1163 8.5398 27.1625 8.49915C27.2087 8.45851 27.2387 8.40263 27.2472 8.34168C27.2564 8.2847 27.2453 8.22629 27.2159 8.17663C27.1865 8.12697 27.1405 8.0892 27.0861 8.06992V8.06992Z" fill="#FCFFFE"/>
<path d="M17.1011 19.429C17.1012 19.3953 17.0944 19.3619 17.081 19.331C17.0677 19.3 17.0482 19.2721 17.0237 19.249C16.9991 19.2259 16.9701 19.2081 16.9385 19.1966C16.9068 19.1851 16.8731 19.1803 16.8394 19.1823C16.8064 19.1836 16.7739 19.1914 16.7439 19.2053C16.7138 19.2192 16.6868 19.2388 16.6644 19.2631C16.642 19.2874 16.6245 19.3159 16.6131 19.347C16.6017 19.378 16.5965 19.411 16.5979 19.444C16.6944 20.6719 17.0332 21.8684 17.5947 22.9645C18.1561 24.0607 18.9292 25.0348 19.8691 25.8306C19.9206 25.8648 19.9829 25.8789 20.0441 25.8701C20.1053 25.8613 20.1611 25.8304 20.2009 25.7831C20.2407 25.7358 20.2617 25.6755 20.2599 25.6138C20.2582 25.552 20.2337 25.493 20.1912 25.4481C18.4161 23.9211 17.3074 21.7614 17.1011 19.429V19.429Z" fill="#FCFFFE"/>
</svg>
