<svg width="130" height="88" viewBox="0 0 130 88" fill="none" xmlns="http://www.w3.org/2000/svg">
<path fill-rule="evenodd" clip-rule="evenodd" d="M24.4901 44.3724C25.1575 43.5007 25.728 42.7464 26.0274 42.3462C27.8435 39.9066 33.0895 34.3946 35.4288 29.3255C37.2149 25.4588 37.3193 21.8378 33.976 19.589C30.9372 17.5451 26.8221 18.3418 22.4956 20.9078C13.1843 26.4305 2.7 39.9725 0.589127 44.8816C0.358973 45.4176 0.605173 46.0373 1.14121 46.2675C1.67476 46.4967 2.29447 46.2505 2.52463 45.7145C4.55147 41.0041 14.6325 28.0225 23.5714 22.7204C27.0655 20.6486 30.3456 19.6879 32.8001 21.3395C35.2232 22.9683 34.8099 25.638 33.515 28.441C31.2394 33.3748 26.1053 38.7126 24.3357 41.087C23.2271 42.5761 18.8389 48.1359 18.5776 48.703C18.2498 49.4129 18.6823 49.8487 18.8349 49.9811C18.9531 50.0838 19.5754 50.5579 20.3005 49.9311C30.6441 40.9995 52.6986 34.4531 73.0473 36.0738C93.2172 37.68 111.755 47.3672 115.283 71.0699C115.37 71.6454 115.907 72.043 116.481 71.9588C117.057 71.872 117.454 71.335 117.368 70.7594C113.671 45.9243 94.3464 35.6546 73.2161 33.9717C55.4077 32.5527 36.3488 37.2754 24.4901 44.3724Z" fill="#D94539"/>
<path fill-rule="evenodd" clip-rule="evenodd" d="M115.975 69.7087C114.138 68.0338 112.362 66.3077 110.394 64.7746C105.151 60.6892 98.8381 57.5547 92.2689 56.3969C91.6937 56.2969 91.1482 56.6807 91.0466 57.2525C90.9466 57.8276 91.3304 58.3731 91.9022 58.4747C98.1374 59.5698 104.123 62.5618 109.097 66.4382C111.349 68.1942 113.348 70.2087 115.479 72.1016C115.586 72.1948 116.487 73.0456 116.727 73.1729C117.283 73.4726 117.704 73.2418 117.886 73.1099C118.038 73.0016 118.196 72.8353 118.3 72.5733C118.385 72.3578 118.449 71.9112 118.408 71.2957C118.283 69.3239 117.33 64.7667 117.253 64.0021C116.368 55.238 117.016 46.9357 117.479 38.1779C117.508 37.5965 117.061 37.0988 116.481 37.0676C115.9 37.0364 115.405 37.484 115.374 38.0645C114.904 46.9332 114.26 55.3415 115.157 64.2121C115.208 64.7378 115.652 67.6336 115.975 69.7087Z" fill="#D94539"/>
</svg>
