<svg width="40" height="35" viewBox="0 0 40 35" fill="none" xmlns="http://www.w3.org/2000/svg">
<path d="M39.7748 26.6975C38.5424 25.9843 37.341 25.3721 36.2954 24.8546C36.297 24.7894 36.8196 0.768709 36.0464 0.319758C35.9712 0.276248 18.9517 -0.095919 2.88761 0.0235166C1.40365 -0.0272174 1.48599 0.654907 1.48062 1.28861C0.987079 1.92859 0.493539 2.56849 0 3.2084C0.00600088 11.8952 0.335722 20.6601 0.341723 29.353C5.86612 29.4532 19.6727 29.4548 28.813 29.4719L29.8847 34.1656C29.9734 34.5513 30.482 34.6408 30.6985 34.3119L33.0851 30.6932C34.2616 32.2693 34.8374 32.9935 36.292 34.5841C36.4606 34.7686 36.7483 34.7807 36.9325 34.6082C37.4594 34.1111 37.9681 33.6322 38.4892 33.1469C38.6712 32.9776 38.681 32.6913 38.51 32.5093C37.2702 31.1945 36.5879 30.4392 35.4425 28.9439C38.1742 28.0524 37.5145 28.2668 39.6826 27.5622C40.0565 27.441 40.1163 26.8963 39.7748 26.6975ZM35.5271 1.15637C35.6626 1.8718 35.3993 24.355 35.3983 24.416C32.7991 23.1631 30.2013 22.0054 27.5318 20.4682C27.1898 20.273 26.7808 20.5791 26.8696 20.96C27.3538 23.0435 27.7594 24.8349 28.2272 26.8948H2.61322C2.95809 19.9527 2.87104 13.0274 2.48713 6.09704H33.1852C33.4335 6.09704 33.6349 5.89564 33.6349 5.64741C33.6349 5.39917 33.4335 5.19778 33.1852 5.19778H2.437C2.34119 3.47278 2.39994 1.45805 2.36949 0.955562C3.50368 0.676376 15.2219 0.951064 35.5271 1.15637ZM34.5614 28.2835C34.2657 28.3791 34.1536 28.7392 34.3433 28.9854C34.5834 29.2875 35.5295 30.6453 37.546 32.7973C37.2468 33.0766 36.9494 33.3564 36.6485 33.6398C35.3052 32.1557 34.7563 31.4344 33.4238 29.6423C33.2351 29.3894 32.8565 29.405 32.6873 29.6634L30.5267 32.939C30.5129 32.8785 28.2439 22.9123 27.9756 21.7498C31.5697 23.7261 35.0276 25.0978 38.4892 27.0048C38.4232 27.0263 38.7577 26.9165 34.5614 28.2835Z" fill="#1D2930"/>
</svg>
