<svg width="18" height="18" viewBox="0 0 18 18" fill="none" xmlns="http://www.w3.org/2000/svg">
<path d="M17.7086 13.4586C17.5046 13.2414 16.7847 12.5992 15.4613 11.7496C14.1281 10.8926 13.1449 10.3582 12.8629 10.2336C12.838 10.2226 12.8106 10.2185 12.7836 10.2219C12.7567 10.2253 12.7311 10.2359 12.7097 10.2527C12.2554 10.607 11.4906 11.2578 11.4496 11.293C11.1847 11.5199 11.1847 11.5199 10.9679 11.4492C10.5867 11.3242 9.40231 10.6953 8.37028 9.66094C7.33825 8.62656 6.67692 7.41289 6.55192 7.03203C6.48044 6.81484 6.48044 6.81484 6.70817 6.55C6.74333 6.50898 7.3945 5.74414 7.74879 5.29023C7.7656 5.26886 7.77626 5.24331 7.77963 5.21633C7.783 5.18935 7.77896 5.16196 7.76793 5.13711C7.64333 4.85468 7.10895 3.87187 6.25192 2.53867C5.40114 1.21562 4.75973 0.495695 4.54255 0.291789C4.52262 0.272981 4.49798 0.259898 4.47124 0.253917C4.4445 0.247936 4.41664 0.249279 4.39059 0.257805C3.6314 0.518697 2.8989 0.851593 2.20309 1.25195C1.53139 1.64243 0.895454 2.09143 0.302705 2.59374C0.282013 2.61134 0.266501 2.63423 0.25783 2.65996C0.249159 2.6857 0.247658 2.71331 0.253486 2.73984C0.335127 3.12031 0.725361 4.70859 1.9363 6.90859C3.17184 9.15391 4.02809 10.3043 5.84255 12.1125C7.657 13.9207 8.84371 14.8285 11.0914 16.0641C13.2914 17.275 14.8804 17.6656 15.2601 17.7465C15.2867 17.7523 15.3144 17.7507 15.3401 17.7421C15.3659 17.7334 15.3889 17.7179 15.4066 17.6973C15.9088 17.1045 16.3577 16.4686 16.748 15.7969C17.1483 15.101 17.4812 14.3685 17.7421 13.6094C17.7505 13.5835 17.7518 13.5559 17.7459 13.5294C17.74 13.5029 17.7271 13.4785 17.7086 13.4586Z" fill="#F7F8FA"/>
</svg>
