<svg width="191" height="12" viewBox="0 0 191 12" fill="none" xmlns="http://www.w3.org/2000/svg">
<path fill-rule="evenodd" clip-rule="evenodd" d="M63.3205 1.03372C42.258 0.791233 21.1096 1.67742 0.722799 5.39854C0.359064 5.46468 0.208065 5.59474 0.178305 5.6245C0.00415314 5.80086 -0.014617 5.98823 0.00742754 6.14255C0.0206543 6.23624 0.109973 6.63193 0.59826 6.67271C0.935542 6.70027 3.32954 6.50738 4.25321 6.45778C8.6015 6.22521 12.941 5.89344 17.2783 5.50987C27.1124 4.64352 36.9332 3.89401 46.7827 3.21173C52.3125 2.82815 57.8446 2.5107 63.3734 2.25057C76.674 2.40599 89.9415 3.01222 102.961 3.63829C97.7861 3.95683 93.0311 4.27978 89.0884 4.4892C82.4398 4.84192 75.8033 5.25855 69.1678 5.80746C65.7587 6.08853 62.3538 6.39386 58.9513 6.75429C58.5743 6.79507 57.7157 6.83695 57.3001 6.88655C57.1238 6.90639 56.9959 6.93836 56.9386 6.9604C56.5793 7.09928 56.5341 7.38365 56.5297 7.52694C56.5275 7.61401 56.5572 8.08908 57.1635 8.18167C85.3507 12.5266 114.758 7.47183 143.047 11.6956C143.379 11.7452 143.689 11.5159 143.739 11.183C143.789 10.8513 143.559 10.5404 143.227 10.4908C116.583 6.51289 88.9473 10.7664 62.2701 7.64378C64.6013 7.41782 66.9336 7.21391 69.2681 7.02102C75.8914 6.47321 82.5158 6.05768 89.1534 5.70496C95.8329 5.35115 104.862 4.66005 114.314 4.22467C122.425 4.67658 130.532 5.1836 138.645 5.61347C142.067 5.79424 145.49 5.94414 148.912 6.12822C150.318 6.20317 153.937 6.5173 154.461 6.40046C154.869 6.30898 154.967 6.01689 154.992 5.8703C155.017 5.71158 155.002 5.51427 154.816 5.32579C154.759 5.26627 154.587 5.14283 154.234 5.04142C144.695 2.309 129.074 2.35198 114.444 3.01222C111.297 2.83586 108.15 2.66832 105.002 2.51732C97.796 2.17012 90.5103 1.82181 83.1827 1.54735C103.833 1.03702 124.493 1.18362 145.159 1.55287C153.835 1.70828 177.224 2.64518 186.435 3.47295C186.322 3.58869 186.256 3.74961 186.264 3.92486C186.28 4.25994 186.565 4.52007 186.901 4.50464C188.801 4.41646 189.9 4.30403 190.336 4.1883C190.607 4.11665 190.755 4.00202 190.823 3.92707C190.99 3.74631 191.021 3.55231 190.988 3.36823C190.967 3.2536 190.915 3.12795 190.796 3.01222C190.717 2.93286 190.523 2.81162 190.192 2.72895C186.572 1.82843 155.512 0.520076 145.181 0.334902C117.88 -0.152283 90.5896 -0.251474 63.3205 1.03372ZM146.85 4.80113C141.515 4.07697 135.261 3.82235 128.737 3.83889C132.06 4.03178 135.384 4.22026 138.71 4.39662C141.422 4.54101 144.136 4.66445 146.85 4.80113ZM38.1589 2.6066C31.1597 3.12245 24.1683 3.68017 17.1713 4.29742C16.3634 4.36796 15.5566 4.4374 14.7486 4.50574C22.4863 3.55782 30.3044 2.95491 38.1589 2.6066Z" fill="#FCFFFE"/>
</svg>
