<svg width="38" height="46" viewBox="0 0 38 46" fill="none" xmlns="http://www.w3.org/2000/svg">
<path d="M31.4935 0.777737C31.403 0.572252 31.193 0.441705 30.9683 0.467306C24.3024 1.1517 17.8264 4.49709 13.3843 10.1655C8.56272 10.3766 3.10004 14.2741 0.894582 21.5088C0.765098 21.9335 1.19461 22.317 1.60327 22.1375C3.87047 21.1355 6.23075 21.264 8.1403 22.4591C8.08827 22.8267 7.99838 23.1234 8.25339 23.3419C8.90668 23.9038 9.57904 24.4323 10.2663 24.9441L9.25877 26.5361C9.13704 26.728 9.15433 26.9776 9.30116 27.1512C11.0851 29.261 13.6804 30.7082 16.4212 31.1205C16.492 31.1315 17.5022 31.2205 17.6999 30.8625C17.9078 30.4861 18.1964 30.0107 18.422 29.6126C18.9014 29.8245 19.3862 30.0356 19.8914 30.2437C19.9611 30.2727 20.3333 30.3624 20.5279 30.266C20.6396 30.2113 20.7458 30.1484 20.8558 30.0911C22.0209 30.8048 22.8404 31.7846 23.298 33.0067C22.0901 34.3052 21.3509 36.0511 21.3668 37.968C21.3931 41.1305 23.4213 43.7502 26.1897 44.6976C30.9198 47.0646 36.1261 44.1427 37.0065 39.403C37.7915 35.1757 34.7254 30.4945 29.5748 30.5985C29.5756 30.5965 29.577 30.5946 29.5778 30.5924C29.807 30.1341 30.0014 29.6548 30.1681 29.1549C31.0847 26.4396 31.3972 23.0368 30.7167 20.2035C30.7158 20.1993 30.7144 20.1952 30.7135 20.1912C34.2899 13.5192 32.8813 2.43701 31.4935 0.777737ZM31.4984 8.2364C28.4062 7.75321 25.562 5.98149 23.7451 3.43701C25.9394 2.48011 28.2711 1.8367 30.6624 1.54966C31.2771 3.46125 31.5574 5.76821 31.4984 8.2364ZM22.7828 3.88205C24.7765 6.77003 27.9786 8.77894 31.4535 9.28791C30.9821 16.8749 27.3569 25.6496 20.2195 29.2512C15.609 27.3467 12.2751 25.3812 9.142 22.7255C9.147 22.7063 9.15866 22.6905 9.16146 22.6705C10.2384 14.8558 15.0931 7.63297 22.7828 3.88205ZM2.23532 20.7913C4.3818 14.9978 8.68671 11.8258 12.5554 11.2858C10.4536 14.2897 8.99704 17.7294 8.32286 21.3479C6.49286 20.3421 4.35214 20.145 2.23532 20.7913ZM16.2663 30.0388C14.0117 29.6272 11.8877 28.4513 10.3476 26.764L11.1111 25.5567C12.8708 26.7901 14.78 27.8938 16.94 28.9285C16.7462 29.3268 16.5924 29.5828 16.2663 30.0388ZM21.874 29.5148C25.1495 27.5054 27.6468 24.4223 29.3948 20.9124C29.7592 22.2117 29.8042 24.9139 29.0287 27.6144C28.515 29.393 27.6826 30.7152 27.6479 30.7848C26.3247 30.9411 25.1167 31.4684 24.1177 32.2544C23.6302 31.1546 22.8796 30.2367 21.874 29.5148ZM22.4085 37.9599C22.3802 34.5631 25.1062 31.7756 28.4787 31.7756C31.8035 31.7756 34.5229 34.4944 34.5507 37.8588C34.5788 41.2492 31.8869 44.0143 28.5303 44.0423C25.0702 44.0174 22.436 41.2913 22.4085 37.9599Z" fill="#D94539"/>
</svg>
