<svg width="48" height="46" viewBox="0 0 48 46" fill="none" xmlns="http://www.w3.org/2000/svg">
<path fill-rule="evenodd" clip-rule="evenodd" d="M21.3643 17.0338C16.9086 13.3712 13.2982 9.00948 10.5852 3.92774C10.0426 2.91557 8.77999 2.52947 7.75738 3.07208C6.74521 3.61469 6.35905 4.87732 6.90166 5.89993C9.88601 11.4617 13.8304 16.2408 18.7139 20.2582C19.6009 20.9886 20.926 20.8634 21.6565 19.9764C22.3869 19.0791 22.2512 17.7643 21.3643 17.0338Z" fill="#1D2930"/>
<path fill-rule="evenodd" clip-rule="evenodd" d="M18.9881 2.76952C19.2177 6.98517 19.4264 11.2008 19.6873 15.4165C19.7603 16.5643 20.7516 17.4408 21.8994 17.3678C23.0473 17.2947 23.9238 16.3034 23.8507 15.1556C23.5899 10.9504 23.3811 6.74519 23.1516 2.52954C23.089 1.38485 22.0977 0.503102 20.9498 0.567798C19.802 0.632493 18.9151 1.61857 18.9881 2.76952Z" fill="#1D2930"/>
<path fill-rule="evenodd" clip-rule="evenodd" d="M34.4796 3.62524C31.8083 7.65307 28.7823 11.3678 25.7353 15.1243C25.0049 16.0217 25.1405 17.3366 26.0379 18.0566C26.9352 18.787 28.2501 18.6513 28.9701 17.7539C32.1005 13.9035 35.2101 10.0739 37.9649 5.93129C38.6014 4.97129 38.33 3.67742 37.37 3.0409C36.4204 2.40437 35.1161 2.66524 34.4796 3.62524Z" fill="#1D2930"/>
<path fill-rule="evenodd" clip-rule="evenodd" d="M44.8273 18.5991C37.5856 18.9226 29.8952 18.933 22.6534 18.4739C21.5056 18.4113 20.5143 19.2774 20.4413 20.4356C20.3682 21.5835 21.2447 22.5748 22.3926 22.6478C29.7804 23.1069 37.6274 23.0965 45.0152 22.773C46.1631 22.7208 47.0604 21.74 47.0082 20.5922C46.956 19.4444 45.9752 18.5469 44.8273 18.5991Z" fill="#1D2930"/>
<path fill-rule="evenodd" clip-rule="evenodd" d="M18.7082 19.9242C23.1743 25.392 27.797 30.7555 31.9396 36.4738C32.6179 37.4025 33.9223 37.6111 34.8614 36.9329C35.7901 36.2546 35.9987 34.9502 35.3205 34.0215C31.1257 28.2407 26.4509 22.8146 21.9327 17.2842C21.2022 16.3972 19.8874 16.2616 19.0004 16.992C18.103 17.7225 17.9778 19.0372 18.7082 19.9242Z" fill="#1D2930"/>
<path fill-rule="evenodd" clip-rule="evenodd" d="M20.0608 21.5108C21.2295 27.2082 21.553 32.6551 21.6365 38.4256C21.6469 39.5734 22.5965 40.4916 23.7443 40.4812C24.9026 40.4603 25.8208 39.5212 25.7999 38.3629C25.7165 32.3212 25.3721 26.6342 24.1513 20.6655C23.9113 19.5386 22.8156 18.8081 21.6782 19.0481C20.5513 19.2777 19.8208 20.3838 20.0608 21.5108Z" fill="#1D2930"/>
<path fill-rule="evenodd" clip-rule="evenodd" d="M20.2492 21.0518C16.8683 27.8136 15.1257 35.3266 11.5048 41.9423C10.9518 42.944 11.3274 44.217 12.3396 44.7701C13.3517 45.3231 14.6144 44.9474 15.1675 43.9457C18.8092 37.2883 20.5726 29.7336 23.9848 22.9196C24.4961 21.8866 24.0787 20.6344 23.0561 20.1127C22.0231 19.6014 20.7709 20.0188 20.2492 21.0518Z" fill="#1D2930"/>
<path fill-rule="evenodd" clip-rule="evenodd" d="M22.1098 19.5173C15.3794 20.7069 8.65941 21.2495 1.88724 22.053C0.739414 22.1886 -0.0744987 23.2217 0.0611534 24.3695C0.196806 25.5174 1.22995 26.3313 2.37777 26.1956C9.22299 25.3922 16.0264 24.8287 22.8404 23.6287C23.9673 23.42 24.7291 22.3347 24.5308 21.2078C24.3221 20.0704 23.2472 19.3087 22.1098 19.5173Z" fill="#1D2930"/>
<path fill-rule="evenodd" clip-rule="evenodd" d="M26.7933 16.3458C25.4055 16.2832 24.0907 16.1892 22.7342 15.9909C21.5864 15.824 20.5324 16.617 20.3655 17.7544C20.1985 18.8918 20.9915 19.9562 22.1289 20.1231C23.6315 20.3423 25.082 20.4466 26.6054 20.5092C27.7533 20.5614 28.7341 19.6744 28.7758 18.5161C28.828 17.3683 27.9412 16.3979 26.7933 16.3458Z" fill="#1D2930"/>
</svg>
