<svg width="40" height="38" viewBox="0 0 40 38" fill="none" xmlns="http://www.w3.org/2000/svg">
<path d="M36.1823 30.1656C36.3544 30.1643 36.6163 30.1692 36.7686 30.1608C37.1023 30.3487 37.4548 30.0933 37.4548 29.7626V0.463399C37.4548 0.214782 37.295 0 36.8695 0H1.72934C1.47834 0 1.2217 0.274355 1.18855 0.485084C0.822904 0.79775 0.427988 1.14911 0 1.60764C0.0669757 10.7284 -0.0366179 19.5969 0.183203 28.8297C0.637099 29.3971 0.771767 29.5362 1.12558 29.7661C1.15793 29.9903 1.34291 30.1656 1.57608 30.1656L30.4471 30.1674C31.8406 31.8904 31.5178 31.976 34.5825 35.1578C35.1818 35.7881 35.8244 36.4059 36.6276 36.7396C37.0111 36.8959 38.076 37.0195 38.3777 37.0195C39.9758 37.0195 40.3281 34.8534 39.719 34.154C38.5404 32.8001 37.2993 31.4158 36.1823 30.1656ZM32.7994 26.3498C32.7675 26.313 32.7279 26.2885 32.6885 26.2644C33.1255 24.8785 32.5701 23.9234 31.7864 23.6581C32.9279 21.9956 33.5992 19.9862 33.5992 17.8216C33.5992 12.1208 28.961 7.48257 23.2599 7.48257C17.5588 7.48257 12.9209 12.1208 12.9209 17.8216C12.9209 25.2436 18.118 29.0443 23.3288 28.8104C24.7286 28.7476 26.1294 28.3936 27.4308 27.7404C27.432 27.7423 27.4325 27.7454 27.4338 27.7472C27.7072 28.2538 28.498 28.59 29.0068 28.6767C29.2255 28.855 29.4374 29.0408 29.6362 29.2405L2.10132 29.2388V6.40312C38.4959 6.36988 36.2926 6.47266 36.528 6.32879V29.2388H35.3552C34.4823 28.2612 33.6169 27.289 32.7994 26.3498ZM23.2599 27.2344C18.0699 27.2344 13.8477 23.0119 13.8477 17.8216C13.8477 12.6319 18.0699 8.40937 23.2599 8.40937C28.4499 8.40937 32.6724 12.6319 32.6724 17.8216C32.6724 23.0119 28.4499 27.2344 23.2599 27.2344ZM36.528 5.55065C36.2915 5.40613 38.4971 5.50956 2.10132 5.47632V0.926799H36.528V5.55065ZM38.7171 36.0118C38.5313 36.1835 37.7464 36.0688 37.5034 35.7892C35.3494 33.3154 33.208 30.8957 30.9319 28.2848C31.5234 27.9348 31.9507 27.567 32.2566 27.1357C34.3553 29.5405 36.9292 32.3609 39.02 34.7622C39.1769 34.9426 39.0191 35.7324 38.7171 36.0118Z" fill="#1D2930"/>
</svg>
