<svg width="15" height="15" viewBox="0 0 15 15" fill="none" xmlns="http://www.w3.org/2000/svg">
<path d="M13.7749 1.80455L7.62258 0.0174463C7.54254 -0.00581543 7.45746 -0.00581543 7.37742 0.0174463L1.22508 1.80455C1.03734 1.8591 0.908203 2.03108 0.908203 2.22658V6.37492C0.908203 10.3373 3.5277 13.8827 7.37927 14.9831C7.45849 15.0057 7.54213 15.0056 7.6207 14.9831C11.413 13.8996 14.0918 10.3992 14.0918 6.37492V2.22658C14.0918 2.03108 13.9627 1.8591 13.7749 1.80455ZM10.5492 6.61873C10.4532 8.18304 10.1038 9.40489 9.51091 10.2503C8.97929 11.0083 8.26512 11.4258 7.5 11.4258C6.73488 11.4258 6.02071 11.0083 5.48909 10.2503C4.89615 9.40489 4.54682 8.18306 4.45084 6.61873C4.44343 6.49773 4.48629 6.37905 4.56935 6.29072C4.6524 6.20242 4.76824 6.15235 4.88947 6.15235H5.74219V5.27345C5.74219 4.30419 6.53074 3.51564 7.5 3.51564C8.46926 3.51564 9.25781 4.30419 9.25781 5.27345V6.15235H10.1105C10.2318 6.15235 10.3476 6.20242 10.4307 6.29072C10.5137 6.37905 10.5566 6.49773 10.5492 6.61873Z" fill="#F7F8FA"/>
</svg>
