<svg width="40" height="37" viewBox="0 0 40 37" fill="none" xmlns="http://www.w3.org/2000/svg">
<path d="M34.3278 8.27121L23.7552 6.40996C23.7743 3.28248 23.7499 3.78953 23.8019 3.16198C23.8789 2.22537 23.9749 1.06011 23.3241 0.475976C22.8405 0.0337954 22.1476 0.0830273 21.5892 0.121386C21.0192 0.162098 4.20012 0.0612819 3.94091 0.038628C3.45094 -0.00282623 2.82384 -0.0571173 2.37116 0.152231L2.42239 0.0962036C2.01969 0.376694 1.10504 1.04841 0.805557 1.44102C0.631514 1.6692 0.486501 2.08961 0.480265 2.21959L0.4891 2.20992C0.312222 3.15271 -0.368545 33.3071 0.263479 35.0682C0.50439 35.7394 1.21346 36.2068 1.89662 36.4116C1.89711 36.3995 1.89745 36.3873 1.89791 36.3753C1.94559 36.3897 1.98697 36.4122 2.04171 36.4173C10.6427 37.2493 20.101 36.5289 21.3545 36.5895C21.7209 36.6085 22.1005 36.6275 22.4913 36.5412C23.6983 36.2766 23.6605 35.443 23.633 34.8307C23.5335 32.9667 23.6396 31.0144 23.646 29.1298L23.6636 25.4902C24.0941 25.2961 24.5239 25.1039 24.9638 24.8959L32.5935 26.2716C35.5263 26.7993 38.3386 24.8457 38.8674 21.9148L39.8898 16.2447C40.5641 12.5025 38.0736 8.93061 34.3278 8.27121ZM20.2812 6.01678C18.5645 5.86911 17.3173 5.79063 16.0958 7.2307C15.2453 8.23339 14.8659 9.54369 14.5511 10.8203C14.0851 12.7101 13.7113 14.6227 13.4315 16.5489C13.2425 17.8498 13.1085 19.2383 13.673 20.4254C14.2722 21.6855 15.5071 22.4228 16.8612 22.8899C17.1797 23.0755 17.52 23.2242 17.8741 23.3419C17.5793 24.4186 17.3941 25.4754 17.1481 26.5864C17.2761 26.8425 17.5497 27.2442 17.7923 27.6148C17.7666 27.8342 17.8151 28.0105 18.0013 28.1261C18.0406 28.1506 18.0864 28.1512 18.1298 28.1628C18.1449 28.1904 18.1629 28.2209 18.1754 28.2459C18.1747 28.2226 18.1758 28.199 18.1753 28.1757C18.1995 28.1796 18.2214 28.1959 18.2459 28.1959C18.3341 28.1959 18.4223 28.1708 18.499 28.1207C19.8835 27.2192 21.2765 26.5695 22.7337 25.9132C22.7088 29.638 22.7322 28.8935 22.6932 30.8153C16.4882 30.8135 8.33752 30.7714 2.20595 30.7708C2.29777 22.5934 2.61071 13.4453 2.69547 5.07326C8.39512 5.07326 16.8804 5.02312 22.833 5.02116C22.8313 5.43008 22.8304 5.83828 22.828 6.24671C22.0544 6.14019 21.3955 5.896 20.2812 6.01678ZM2.73458 1.00907C2.86929 0.877079 3.58965 0.9396 3.86057 0.963159C4.15707 0.988573 21.0033 1.09295 21.6538 1.04712C22.7741 0.966151 23.054 0.942971 22.877 3.08587C22.8343 3.60281 22.8375 3.63194 22.8368 4.09331C16.9931 4.09523 8.47868 4.14526 2.70627 4.14541C2.70805 2.52648 2.74528 2.77398 2.69411 2.1121C2.67146 1.82789 2.61921 1.1619 2.73458 1.00907ZM22.2923 35.635C22.0238 35.6939 21.7215 35.6788 21.401 35.6628C19.8004 35.5814 10.8604 36.3253 2.23502 35.5037C2.14118 35.246 2.16441 34.9375 2.19269 31.6987C8.31612 31.6991 16.4795 31.7415 22.6763 31.7432C22.6579 32.7822 22.6508 33.8387 22.7064 34.8763C22.7351 35.513 22.7197 35.5411 22.2923 35.635ZM38.9765 16.08L37.9541 21.7499C37.5167 24.1776 35.1844 25.7987 32.7584 25.3583C24.5834 23.9167 24.9549 23.8725 24.6998 23.9943C22.7805 24.9088 20.737 25.7044 18.8095 26.838C18.9364 25.5618 19.0003 24.5016 19.1433 23.1247C19.168 22.8843 19.0043 22.6647 18.7666 22.6206C16.334 22.1676 14.7324 19.8314 15.1893 17.3957L16.4521 10.5564C16.9019 8.16019 19.2218 6.55375 21.6239 6.97699L34.1671 9.18517C37.4053 9.75519 39.5602 12.8437 38.9765 16.08Z" fill="#1D2930"/>
</svg>
