<svg width="195" height="116" viewBox="0 0 195 116" fill="none" xmlns="http://www.w3.org/2000/svg">
<path fill-rule="evenodd" clip-rule="evenodd" d="M54.4025 110.356C36.9923 110.776 19.2004 109.936 2.55353 115.889C1.56128 116.241 0.469845 115.729 0.111107 114.737C-0.239998 113.745 0.2714 112.653 1.26365 112.294C18.2998 106.204 36.4962 106.967 54.3109 106.539C55.3642 106.509 56.2419 107.348 56.2648 108.402C56.2953 109.455 55.4558 110.325 54.4025 110.356Z" fill="#1D2930"/>
<path fill-rule="evenodd" clip-rule="evenodd" d="M55.9661 85.0785C50.5393 80.0852 44.6163 76.3445 37.4568 74.4905C36.434 74.2264 35.8235 73.1845 36.083 72.1647C36.3501 71.145 37.3958 70.5321 38.4109 70.7962C46.1963 72.8113 52.6459 76.8429 58.546 82.2689C59.3245 82.9818 59.378 84.1901 58.6605 84.9656C57.9507 85.7403 56.737 85.7914 55.9661 85.0785Z" fill="#1D2930"/>
<path fill-rule="evenodd" clip-rule="evenodd" d="M71.0635 30.5632C68.5753 22.0337 63.6751 15.3612 56.1645 10.5426C55.2791 9.97401 55.0196 8.79248 55.592 7.90633C56.1569 7.02017 57.34 6.76216 58.2254 7.3308C66.5374 12.6661 71.9719 20.0499 74.7273 29.4939C75.0249 30.5044 74.4372 31.5654 73.4296 31.86C72.4145 32.1554 71.3536 31.5738 71.0635 30.5632Z" fill="#1D2930"/>
<path fill-rule="evenodd" clip-rule="evenodd" d="M156.818 18.9876C158.298 20.7301 159.626 22.6077 160.756 24.6068C161.26 25.4967 162.145 27.3881 162.283 29.01C162.435 30.7381 161.848 32.196 160.336 32.9638C158.329 33.982 156.726 33.8759 155.489 33.26C154.299 32.6684 153.368 31.506 152.78 29.9474C151.658 26.9683 151.826 22.4154 152.414 19.8173C150.834 18.1869 149.101 16.7084 147.246 15.3941C133.431 5.60512 113.166 9.21464 97.5725 23.8511C92.1151 28.9757 89.4895 39.7378 88.1232 51.3494C85.9937 69.429 87.2073 89.6222 87.3752 95.5383C87.4134 96.9992 87.276 97.8662 87.1997 98.0395C86.841 98.8913 86.2075 99.1126 85.7648 99.1966C85.1236 99.3111 84.6123 99.189 84.2001 98.9753C83.6429 98.6822 83.1849 98.1662 82.9712 97.3701C82.8567 96.9304 82.8262 96.3183 82.8415 95.6657C82.8567 95.2131 82.9483 94.7185 82.8568 94.3941C82.2614 92.3165 81.5439 90.2877 80.8417 88.2444C78.4985 81.3758 75.4682 74.9391 72.1022 68.5101C61.4088 48.0819 51.0666 26.4974 33.5343 10.9335C32.7481 10.2351 32.6717 9.02764 33.3739 8.23994C34.0685 7.45225 35.2745 7.38049 36.0683 8.07964C53.9517 23.9511 64.5764 45.9073 75.4835 66.74C78.3458 72.2089 80.9715 77.6854 83.1544 83.4137C82.9331 73.2805 83.017 59.2539 84.8718 46.8431C86.5205 35.8055 89.6575 26.0508 94.9622 21.069C112.044 5.03496 134.324 1.55675 149.452 12.2807C151.07 13.4287 152.612 14.6911 154.047 16.0604C161.962 1.7682 178.907 -3.96018 193.882 2.87567C194.844 3.31302 195.263 4.44572 194.828 5.40363C194.386 6.36153 193.256 6.7844 192.294 6.34705C178.8 0.187456 163.496 5.68451 156.818 18.9876ZM155.711 23.7725C156.329 24.6457 156.902 25.5509 157.436 26.4867C157.718 26.9889 158.207 27.9545 158.413 28.8994C158.459 29.1207 158.466 29.4673 158.466 29.6275C157.94 29.8871 157.527 30.0122 157.192 29.8436C156.772 29.636 156.558 29.1475 156.352 28.6017C155.833 27.2324 155.665 25.4173 155.711 23.7725Z" fill="#1D2930"/>
</svg>
