<svg width="40" height="41" viewBox="0 0 40 41" fill="none" xmlns="http://www.w3.org/2000/svg">
<path d="M39.483 14.4655L32.2686 6.41546C31.8163 5.91176 31.1691 5.62262 30.493 5.62262C9.65411 5.67168 10.7549 5.51538 10.0244 5.73852C8.19717 4.96497 2.6855 11.927 1.46916 13.4745C-0.628367 16.1435 -0.417965 17.4856 1.70519 20.0483C7.03468 26.4808 12.3641 32.9133 17.6936 39.3459C18.0543 39.7811 18.4276 40.2271 18.9241 40.4975C19.4207 40.768 20.0912 41.065 20.5441 40.7265C20.5193 40.6961 20.5688 40.7568 20.5441 40.7265C21.2811 40.2832 34.6838 23.3779 39.5723 17.0671C40.1745 16.2904 40.1372 15.1965 39.483 14.4663C39.483 14.4663 39.483 14.4663 39.483 14.4655ZM26.9104 16.2772C24.8341 23.6782 22.6205 30.7903 20.3184 37.4466C15.02 20.3608 15.3739 17.232 14.9194 16.1471C18.8947 16.1524 22.9902 16.2126 26.9104 16.2772ZM15.1949 15.0688C17.405 12.3591 19.4392 10.0692 21.5389 7.50799C23.3442 10.0049 24.9544 12.7163 26.8099 15.1952C23.0108 15.1336 19.0516 15.0764 15.1949 15.0688ZM9.59518 7.30327C16.2724 19.2639 12.9827 13.3712 13.9302 15.0685C9.8156 15.0728 5.86002 15.1416 2.38555 15.3307L9.59518 7.30327ZM2.18435 16.4238C5.70059 16.2238 9.73694 16.152 13.9407 16.1476C13.9026 16.2382 13.8801 16.336 13.8972 16.4403C15.1566 24.0772 17.3909 31.6728 19.4554 38.3056C14.1706 31.3498 2.72931 17.6103 2.18435 16.4238ZM28.0276 16.2957C28.2442 16.2994 28.4631 16.303 28.6783 16.3066C32.2608 16.3667 35.6437 16.4217 38.6935 16.4376C32.9066 23.9068 27.5962 30.4948 21.2316 38.1019C23.6074 31.2546 25.8916 23.9307 28.0276 16.2957ZM38.7835 15.3577C35.7187 15.3424 32.3084 15.2867 28.6963 15.226C28.6015 15.2244 28.5048 15.2229 28.4097 15.2213C28.7049 14.6755 29.0023 14.1291 29.3154 13.5609C30.2699 11.8293 31.2528 10.0307 32.2267 7.98812C39.2873 15.9013 38.6091 15.0505 38.7835 15.3577ZM31.4446 7.11948C30.4214 9.30612 29.3791 11.2065 28.3692 13.0389C28.105 13.5186 27.8461 13.9879 27.5946 14.4508C25.9204 12.2003 24.2059 9.34489 22.2788 6.70319H30.493C30.8538 6.70319 31.1983 6.85602 31.4446 7.11948ZM20.7959 6.70319C18.553 9.44611 16.7066 11.5186 14.6106 14.0716C13.5866 12.2444 10.6049 6.87418 10.49 6.72711C10.7597 6.67954 10.0607 6.71454 20.7959 6.70319Z" fill="#D94539"/>
<path d="M31.7308 3.91876L32.2246 0.619376C32.269 0.323908 32.0653 0.0488421 31.7702 0.004522C31.4765 -0.0327632 31.2 0.164215 31.156 0.458979L30.6622 3.75837C30.5561 4.46539 31.6248 4.62692 31.7308 3.91876Z" fill="#D94539"/>
<path d="M33.9043 5.27708C34.7801 4.53841 35.5737 3.69914 36.2634 2.78249C36.6917 2.21201 35.8305 1.5596 35.3996 2.13246C34.759 2.98439 34.0214 3.76457 33.2078 4.45118C32.6613 4.91101 33.3591 5.73901 33.9043 5.27708Z" fill="#D94539"/>
<path d="M35.5069 7.44173L38.2695 6.96828C38.5635 6.91763 38.7612 6.63904 38.7109 6.34428C38.6606 6.05022 38.3824 5.85746 38.0873 5.90319L35.3247 6.37664C34.6333 6.49572 34.7856 7.55649 35.5069 7.44173Z" fill="#D94539"/>
</svg>
